<svg width="60" height="60" viewBox="0 0 60 60" fill="none" xmlns="http://www.w3.org/2000/svg">
<path d="M25.1558 32.6325L36.5258 39.2025C37.0358 39.495 37.2083 40.1475 36.9158 40.6575C36.6233 41.1675 35.9708 41.34 35.4608 41.0475L24.0908 34.4775C23.5808 34.185 23.4083 33.5325 23.7008 33.0225C23.9933 32.5125 24.6458 32.34 25.1558 32.6325Z" fill="#1D1D1B"/>
<path d="M25.1558 27.5475L36.5258 34.1175C37.0358 34.41 37.2083 35.0625 36.9158 35.5725C36.6233 36.0825 35.9708 36.255 35.4608 35.9625L24.0908 29.4C23.5808 29.1075 23.4083 28.455 23.7008 27.945C23.9933 27.435 24.6458 27.2625 25.1558 27.555" fill="#1D1D1B"/>
<path d="M25.1558 22.6875L36.5258 29.2575C37.0358 29.55 37.2083 30.2025 36.9158 30.7125C36.6233 31.2225 35.9708 31.395 35.4608 31.1025L24.0908 24.54C23.5808 24.2475 23.4083 23.595 23.7008 23.085C23.9933 22.575 24.6458 22.4025 25.1558 22.695" fill="#1D1D1B"/>
<path d="M25.1558 17.6174L36.5258 24.1874C37.0358 24.4799 37.2083 25.1324 36.9158 25.6424C36.6233 26.1524 35.9708 26.3249 35.4608 26.0324L24.0908 19.4699C23.5808 19.1774 23.4083 18.5249 23.7008 18.0149C23.9933 17.5049 24.6458 17.3324 25.1558 17.6249" fill="#1D1D1B"/>
<path d="M25.7251 42.9075H34.8901C35.4526 42.9075 35.9101 43.365 35.9101 43.9275C35.9101 44.49 35.4526 44.9475 34.8901 44.9475H25.7251C25.1626 44.9475 24.7051 44.49 24.7051 43.9275C24.7051 43.365 25.1626 42.9075 25.7251 42.9075Z" fill="#1D1D1B"/>
<path d="M25.7251 14.205H34.8901C35.4526 14.205 35.9101 14.6625 35.9101 15.225C35.9101 15.7875 35.4526 16.245 34.8901 16.245H25.7251C25.1626 16.245 24.7051 15.7875 24.7051 15.225C24.7051 14.6625 25.1626 14.205 25.7251 14.205Z" fill="#1D1D1B"/>
<path d="M34.1034 39.9075H27.2109V35.7075" fill="#1D1D1B"/>
<path d="M27.2109 19.125H34.1034V23.325" fill="#1D1D1B"/>
<path d="M33.6372 44.9475V49.5375C33.6372 49.5375 33.4422 52.0425 30.3147 52.0425C30.3147 52.0425 26.9922 51.8925 26.9922 49.5375V44.9475" fill="#1D1D1B"/>
<path d="M26.9844 15.225V10.635C26.9844 10.635 27.1794 8.13 30.3069 8.13C30.3069 8.13 33.6294 8.28 33.6294 10.635V15.225" fill="#1D1D1B"/>
<path d="M29.0391 47.94C29.0391 48.645 29.6091 49.215 30.3141 49.215C31.0191 49.215 31.5891 48.645 31.5891 47.94C31.5891 47.235 31.0191 46.665 30.3141 46.665C29.6091 46.665 29.0391 47.235 29.0391 47.94Z" fill="#1D1D1B"/>
<path d="M29.0391 11.6775C29.0391 12.3825 29.6091 12.9525 30.3141 12.9525C31.0191 12.9525 31.5891 12.3825 31.5891 11.6775C31.5891 10.9725 31.0191 10.4025 30.3141 10.4025C29.6091 10.4025 29.0391 10.9725 29.0391 11.6775Z" fill="#1D1D1B"/>
</svg>
