<svg width="60" height="60" viewBox="0 0 60 60" fill="none" xmlns="http://www.w3.org/2000/svg">
<path d="M42.5938 28.4925C42.5188 28.2075 42.4288 27.9225 42.3163 27.66L45.5038 26.865V24.12C46.3738 25.41 46.9513 26.895 47.1838 28.5H42.5938V28.4925ZM41.9563 33.0525C42.1063 32.805 42.2413 32.5425 42.3538 32.265L45.1738 33.96L47.1163 32.0175C46.8088 33.6 46.1413 35.055 45.2038 36.3L41.9563 33.0525ZM38.2738 35.82C38.5588 35.745 38.8438 35.655 39.1138 35.5425L39.9088 38.73H42.6538C41.3638 39.6 39.8788 40.1775 38.2738 40.41V35.82ZM33.7213 35.1825C33.9763 35.3325 34.2313 35.4675 34.5088 35.58L32.8138 38.4L34.7563 40.3425C33.1738 40.035 31.7188 39.3675 30.4738 38.43L33.7213 35.1825ZM30.9538 31.5075C31.0288 31.7925 31.1188 32.0775 31.2313 32.34L28.0438 33.135V35.88C27.1738 34.5975 26.5963 33.105 26.3638 31.5H30.9538V31.5075ZM31.5913 26.9475C31.4413 27.2025 31.3063 27.4575 31.1938 27.735L28.3738 26.04L26.4313 27.9825C26.7388 26.4 27.4138 24.945 28.3438 23.7L31.5913 26.9475ZM35.2663 24.18C34.9813 24.255 34.6963 24.3375 34.4338 24.4575L33.6388 21.27H30.8938C32.1838 20.4 33.6688 19.8225 35.2738 19.59V24.18H35.2663ZM39.8263 24.8175C39.5788 24.6675 39.3163 24.5325 39.0388 24.42L40.7263 21.6L38.7838 19.6575C40.3663 19.965 41.8213 20.6325 43.0663 21.57L39.8188 24.8175H39.8263ZM41.0263 25.7475L44.0038 22.77V25.6875L41.5213 26.31C41.3713 26.115 41.2063 25.92 41.0338 25.7475M42.7963 30H47.0038L44.9413 32.0625L42.7513 30.75C42.7813 30.5025 42.8038 30.255 42.8038 30M41.0263 34.2525L44.0038 37.2225H41.0863L40.4638 34.74C40.6588 34.59 40.8538 34.425 41.0263 34.2525ZM36.7738 19.7775L38.8363 21.84L37.5238 24.03C37.2763 24 37.0288 23.9775 36.7738 23.9775V19.7775ZM32.5213 34.2525L29.5438 37.2225V34.305L32.0263 33.6825C32.1763 33.8775 32.3413 34.0725 32.5138 34.245M30.7513 30H26.5513L28.6138 27.9375L30.8038 29.25C30.7738 29.4975 30.7513 29.745 30.7513 29.9925M32.5213 25.7475L29.5438 22.7775H32.4613L33.0838 25.26C32.8888 25.4175 32.6938 25.575 32.5213 25.7475ZM36.7738 34.515C34.2838 34.515 32.2588 32.49 32.2588 30C32.2588 27.51 34.2838 25.485 36.7738 25.485C39.2638 25.485 41.2888 27.51 41.2888 30C41.2888 32.49 39.2638 34.515 36.7738 34.515ZM36.7738 40.2225L34.7113 38.16L36.0238 35.97C36.2713 36 36.5188 36.0225 36.7738 36.0225V40.23V40.2225ZM36.7738 17.9625C30.1363 17.9625 24.7363 23.3625 24.7363 30C24.7363 36.6375 30.1363 42.0375 36.7738 42.0375C43.4113 42.0375 48.8113 36.6375 48.8113 30C48.8113 23.3625 43.4113 17.9625 36.7738 17.9625Z" fill="#1D1D1B"/>
<path d="M36.7731 31.5076C35.9406 31.5076 35.2656 30.8326 35.2656 30.0001C35.2656 29.1676 35.9406 28.4926 36.7731 28.4926C37.6056 28.4926 38.2806 29.1676 38.2806 30.0001C38.2806 30.8326 37.6056 31.5076 36.7731 31.5076ZM36.7731 26.9926C35.1156 26.9926 33.7656 28.3426 33.7656 30.0001C33.7656 31.6576 35.1156 33.0076 36.7731 33.0076C38.4306 33.0076 39.7806 31.6576 39.7806 30.0001C39.7806 28.3426 38.4306 26.9926 36.7731 26.9926Z" fill="#1D1D1B"/>
<path d="M21.7204 45.0525C21.3079 45.0525 20.9704 44.715 20.9704 44.3025C20.9704 43.89 21.3079 43.5525 21.7204 43.5525C22.1329 43.5525 22.4704 43.89 22.4704 44.3025C22.4704 44.715 22.1329 45.0525 21.7204 45.0525ZM21.7204 42.0375C20.4754 42.0375 19.4629 43.05 19.4629 44.295C19.4629 45.54 20.4754 46.5525 21.7204 46.5525C22.9654 46.5525 23.9779 45.54 23.9779 44.295C23.9779 43.05 22.9654 42.0375 21.7204 42.0375Z" fill="#1D1D1B"/>
<path d="M36.773 13.4475C34.6505 13.4475 32.618 13.8525 30.7505 14.5875V14.205C30.7505 12.1275 32.438 10.44 34.5155 10.44H48.0605C50.138 10.44 51.8255 12.1275 51.8255 14.205V23.1225C49.208 17.4225 43.448 13.4475 36.773 13.4475ZM36.773 45.0525C28.478 45.0525 21.7205 38.3025 21.7205 30C21.7205 21.6975 28.4705 14.9475 36.773 14.9475C45.0755 14.9475 51.8255 21.6975 51.8255 30C51.8255 38.3025 45.0755 45.0525 36.773 45.0525ZM35.2655 49.5675H33.758C33.3455 49.5675 33.008 49.23 33.008 48.8175V46.125C33.983 46.35 34.988 46.4925 36.0155 46.545V48.8175C36.0155 49.23 35.678 49.5675 35.2655 49.5675ZM17.963 44.295V37.5225H22.0355C23.993 41.34 27.3905 44.3025 31.508 45.69V48.06H21.728C19.658 48.06 17.9705 46.3725 17.9705 44.295M13.448 44.295C13.448 44.7075 13.1105 45.0525 12.698 45.0525H11.1905C10.778 45.0525 10.4405 44.715 10.4405 44.295V37.5225H13.448V44.295ZM8.17547 35.265V24.7275C8.17547 24.315 8.51297 23.9775 8.92547 23.9775H21.353C21.158 24.465 20.993 24.9675 20.843 25.485H11.183C10.3505 25.485 9.67547 26.16 9.67547 26.9925V33.015C9.67547 33.8475 10.3505 34.5225 11.183 34.5225H20.843C20.9855 35.0325 21.158 35.535 21.353 36.03H8.93297C8.52047 36.03 8.18297 35.6925 8.18297 35.28M10.433 17.205C10.433 16.7925 10.7705 16.455 11.183 16.455H12.6905C13.103 16.455 13.4405 16.7925 13.4405 17.205V22.47H10.433V17.205ZM17.963 20.22C17.963 19.8075 18.3005 19.47 18.713 19.47H20.2205C20.633 19.47 20.9705 19.8075 20.9705 20.22V22.4775H17.963V20.22ZM20.288 28.4925H18.713V30H20.2205C20.2205 31.0275 20.318 32.0325 20.498 33.0075H11.1905V26.985H20.498C20.408 27.48 20.333 27.9825 20.288 28.4925ZM26.2355 15.705C26.723 15.705 27.173 15.9525 27.443 16.335C26.6255 16.8975 25.853 17.5275 25.148 18.225C24.8855 17.955 24.728 17.595 24.728 17.2125C24.728 16.38 25.403 15.705 26.2355 15.705ZM53.3255 14.1975C53.3255 11.295 50.963 8.9325 48.0605 8.9325H34.5155C31.613 8.9325 29.2505 11.295 29.2505 14.1975V15.2625C29.078 15.3525 28.9055 15.4425 28.733 15.54C28.1855 14.7225 27.2555 14.1975 26.243 14.1975C24.5855 14.1975 23.2355 15.5475 23.2355 17.205C23.2355 18.0225 23.5655 18.78 24.128 19.335C23.513 20.0625 22.9655 20.8425 22.478 21.6675V20.2125C22.478 18.9675 21.4655 17.955 20.2205 17.955H18.713C17.468 17.955 16.4555 18.9675 16.4555 20.2125V22.47H14.948V17.205C14.948 15.96 13.9355 14.9475 12.6905 14.9475H11.183C9.93797 14.9475 8.92547 15.96 8.92547 17.205V22.47C7.68047 22.47 6.66797 23.4825 6.66797 24.7275V35.265C6.66797 36.51 7.68047 37.5225 8.92547 37.5225V44.295C8.92547 45.54 9.93797 46.5525 11.183 46.5525H12.6905C13.9355 46.5525 14.948 45.54 14.948 44.295V37.5225H16.4555V44.295C16.4555 47.1975 18.818 49.56 21.7205 49.56H31.643C31.958 50.4375 32.783 51.0675 33.7655 51.0675H35.273C36.518 51.0675 37.5305 50.055 37.5305 48.81V46.5375C46.313 46.14 53.333 38.88 53.333 30C53.333 29.745 53.333 29.4975 53.3105 29.25H53.333V14.1975H53.3255Z" fill="#1D1D1B"/>
<path d="M48.8102 14.9474C48.3977 14.9474 48.0602 14.6099 48.0602 14.1974C48.0602 13.7849 48.3977 13.4474 48.8102 13.4474C49.2227 13.4474 49.5602 13.7849 49.5602 14.1974C49.5602 14.6099 49.2227 14.9474 48.8102 14.9474ZM48.8102 11.9399C47.5652 11.9399 46.5527 12.9524 46.5527 14.1974C46.5527 15.4424 47.5652 16.4549 48.8102 16.4549C50.0552 16.4549 51.0677 15.4424 51.0677 14.1974C51.0677 12.9524 50.0552 11.9399 48.8102 11.9399Z" fill="#1D1D1B"/>
<path d="M14.197 28.4926H12.6895V30.0001H14.197V28.4926Z" fill="#1D1D1B"/>
<path d="M17.2126 28.4926H15.7051V30.0001H17.2126V28.4926Z" fill="#1D1D1B"/>
</svg>
