<svg width="59" height="60" viewBox="0 0 59 60" fill="none" xmlns="http://www.w3.org/2000/svg">
<path d="M30.7464 9.84755L30.7169 11.6401L28.9543 11.61L28.9838 9.81755C28.9912 9.32255 29.3968 8.93255 29.8762 8.94005C30.1122 8.94005 30.3334 9.04505 30.4957 9.21005C30.6579 9.38255 30.7464 9.60755 30.7391 9.84755H30.7464ZM32.3616 14.0251L32.1772 24.9525L27.0368 24.8625L27.2212 13.935C27.2286 13.4325 27.6416 13.035 28.1357 13.0425L31.4913 13.1025C31.9854 13.11 32.3763 13.5301 32.3689 14.0251H32.3616ZM35.4443 27.1725L35.4222 28.4025L34.4561 28.3875L23.6812 28.2L23.7033 26.97C23.7033 26.5875 24.0499 26.2575 24.4261 26.2575L34.751 26.445C34.9428 26.445 35.1198 26.5275 35.2526 26.6625C35.3853 26.805 35.4591 26.985 35.4517 27.1725H35.4443ZM33.6891 31.5075L25.4807 31.365L25.5102 29.6775L33.7186 29.82L33.6891 31.5075ZM35.3042 34.935L33.2392 34.8975L25.6282 34.7625L23.5632 34.725L23.5927 32.775L34.3675 32.97L35.3337 32.985L35.2968 34.935H35.3042ZM33.7481 36.915C33.7481 37.0425 33.6964 37.47 33.2023 37.47L25.5987 37.335C25.0898 37.32 25.0529 36.885 25.0603 36.7575C25.0603 36.675 25.0824 36.48 25.2226 36.345C25.3037 36.2625 25.4291 36.2025 25.6208 36.2025L29.4189 36.27L33.2171 36.3375C33.7259 36.36 33.7628 36.78 33.7554 36.915H33.7481ZM33.7038 39.4875C33.7038 39.6225 33.6522 40.0425 33.1581 40.0425L25.5544 39.9075C25.0456 39.8925 25.0087 39.4575 25.0161 39.33C25.0161 39.2475 25.0382 39.0525 25.1709 38.9175C25.2521 38.835 25.3774 38.775 25.5692 38.775L33.1654 38.91C33.6743 38.925 33.7112 39.36 33.7038 39.4875ZM33.6596 42.0675C33.6596 42.195 33.6079 42.6225 33.1138 42.6225L25.5102 42.4875C25.0013 42.4725 24.9644 42.045 24.9718 41.91C24.9718 41.8275 24.9939 41.6325 25.1341 41.4975C25.2152 41.415 25.3406 41.355 25.5323 41.355L33.1286 41.49C33.6374 41.505 33.6743 41.94 33.6669 42.0675H33.6596ZM33.6153 44.64C33.6153 44.7675 33.5637 45.195 33.0696 45.195L25.4659 45.06C25.2742 45.06 25.1488 44.9925 25.0677 44.9025C25.0529 44.8875 25.0456 44.865 25.0308 44.85C24.9349 44.715 24.9276 44.5575 24.9276 44.4825C24.9276 44.4 24.9497 44.205 25.0898 44.07C25.1709 43.9875 25.2963 43.9275 25.4881 43.9275L33.0843 44.0625C33.5932 44.0775 33.6301 44.5125 33.6227 44.64H33.6153ZM29.7656 48.3C29.7656 48.6075 29.4927 48.8625 29.1977 48.8625C29.0502 48.8625 28.9101 48.8025 28.8068 48.69C28.7036 48.5775 28.6446 48.435 28.6519 48.285L28.6814 46.575L29.8024 46.5975L29.7729 48.315L29.7656 48.3ZM31.5208 8.20505C31.0931 7.75505 30.5178 7.50005 29.9057 7.49255C28.6372 7.47005 27.5899 8.49755 27.5678 9.78755L27.5383 11.6775C26.5574 11.94 25.8273 12.8251 25.8052 13.9051L25.6208 24.8325L24.4482 24.81C23.3124 24.7875 22.3021 25.7775 22.2799 26.94L22.2431 28.89C22.2431 29.2875 22.5454 29.6175 22.9437 29.625L24.0942 29.6475L24.0647 31.335H23.6296C22.8478 31.3125 22.1988 31.95 22.1841 32.745L22.1546 34.695C22.1398 35.49 22.7667 36.15 23.5484 36.165H23.7402C23.6886 36.3525 23.6517 36.54 23.6443 36.735C23.6369 37.2 23.7771 37.6575 24.0647 38.0325C23.7697 38.3925 23.6074 38.8575 23.6001 39.315C23.6001 39.7725 23.7402 40.2375 24.0204 40.6125C23.7254 40.9725 23.5632 41.43 23.5558 41.895C23.5558 42.3525 23.6959 42.8175 23.9762 43.1925C23.6812 43.5525 23.5189 44.01 23.5116 44.475C23.5116 44.8725 23.6148 45.27 23.8213 45.615L23.7549 49.4625C23.7254 51.0975 25.1046 52.4475 26.8229 52.4775L29.1387 52.515C29.3304 52.515 29.5148 52.44 29.6476 52.3125C29.7803 52.185 29.8614 52.005 29.8614 51.8025C29.8614 51.405 29.5591 51.075 29.1608 51.0675L26.8451 51.0225C25.9084 51.0075 25.1636 50.31 25.1709 49.4775L25.2226 46.4775C25.2889 46.485 25.3553 46.5 25.4291 46.5075L27.2581 46.5375L27.2285 48.255C27.2212 48.795 27.4129 49.305 27.7817 49.6875C28.1504 50.0775 28.6446 50.295 29.1682 50.3025C29.6992 50.31 30.2007 50.1075 30.5768 49.74C30.9603 49.365 31.1742 48.8625 31.1816 48.3225L31.2111 46.6125L33.0474 46.6425C33.6374 46.6425 34.102 46.4325 34.4339 46.11C34.8174 45.735 35.0239 45.2025 35.0313 44.67C35.0387 44.2125 34.8986 43.7475 34.6109 43.3725C34.9059 43.0125 35.0682 42.555 35.0756 42.0975C35.0829 41.6325 34.9428 41.1675 34.6552 40.8C34.9502 40.44 35.1124 39.9825 35.1198 39.525C35.1272 39.06 34.9797 38.595 34.6994 38.2275C34.9944 37.8675 35.1567 37.41 35.1641 36.9525C35.1641 36.765 35.1346 36.57 35.0903 36.3825H35.2821C35.6582 36.39 36.0196 36.2475 36.2924 35.9775C36.5653 35.7075 36.7202 35.3475 36.7276 34.965L36.7644 33.015C36.7792 32.22 36.1523 31.56 35.3706 31.545H35.1124L35.1419 29.85L36.1081 29.865C36.3072 29.865 36.4842 29.79 36.6169 29.6625C36.7497 29.535 36.8308 29.355 36.8308 29.1525L36.8603 27.2025C36.8677 26.625 36.6612 26.0775 36.2629 25.6575C35.8647 25.2375 35.3411 25.005 34.7658 24.9975L33.5932 24.975L33.7776 14.0475C33.7997 12.9675 33.0917 12.0601 32.1256 11.7601L32.1551 9.87005C32.1624 9.24755 31.9338 8.65505 31.5061 8.20505H31.5208Z" fill="#1D1D1B"/>
</svg>
