<svg width="60" height="60" viewBox="0 0 60 60" fill="none" xmlns="http://www.w3.org/2000/svg">
<path d="M52.2522 17.5425V22.065L52.8747 22.695V28.8225H53.7522V35.4525C53.7522 35.58 53.7072 38.5725 51.0147 38.5725H46.0122V31.8225H45.2622V38.5725H34.8447V37.7775H28.7172L27.8847 37.08H23.5647V40.2825H28.0872L28.7172 39.66H34.8447V39.3225H45.2622V40.0875C45.2622 40.215 45.2172 43.2075 42.5247 43.2075H24.3972V42.4125H18.2697L17.4372 41.715H13.1172V44.9175H17.6472L18.2772 44.295H24.4047V43.9575H42.5322C45.2847 43.9575 46.0122 41.43 46.0197 40.0875V39.3225H51.0222C53.7747 39.3225 54.5022 36.795 54.5097 35.4525V28.8225H54.7722V22.695L55.4697 21.8625V17.5425H52.2672H52.2522Z" fill="#1D1D1B"/>
<path d="M35.9467 23.1825H37.8292V17.055L38.5267 16.215V11.9025H35.3242V16.425L35.9467 17.055V23.1825Z" fill="#1D1D1B"/>
<path d="M15.9597 35.31H34.0872C36.8397 35.31 37.5672 32.7825 37.5672 31.4475V23.1825H36.8172V31.4475C36.8172 31.575 36.7722 34.5675 34.0872 34.5675H15.9597V33.7725H9.83219L8.99969 33.075H4.67969V36.2775H9.20219L9.83219 35.655H15.9597V35.3175V35.31Z" fill="#1D1D1B"/>
<path d="M44.3842 31.815H46.2667V25.6875L46.9642 24.855V20.535H43.7617V25.0575L44.3842 25.6875V31.815Z" fill="#1D1D1B"/>
</svg>
