<svg width="59" height="60" viewBox="0 0 59 60" fill="none" xmlns="http://www.w3.org/2000/svg">
<path d="M49.2729 20.8575C49.6416 20.0175 49.7449 19.1775 49.5458 18.405C49.2065 17.1225 48.1298 16.23 47.2226 15.6C42.5026 12.3 35.902 11.475 30.7985 13.5375C27.76 14.7675 25.0608 18.165 26.0121 21.495C26.0638 21.6675 26.1154 21.8325 26.1744 22.005C26.285 22.3275 26.3883 22.6425 26.4178 22.9425C26.4325 23.0625 26.4325 23.19 26.4178 23.3175C26.344 23.835 25.9384 24.3525 25.2083 24.8475C23.3867 26.085 21.1151 26.55 18.9174 27C18.0398 27.18 17.1326 27.36 16.2624 27.5925C13.1206 28.425 9.66178 30.51 9.37415 33.855C9.22665 35.5125 9.88303 36.9525 10.9229 38.1825C11.3433 41.1975 14.2785 43.425 16.8377 44.8125C19.2935 46.1475 22.4279 47.595 25.7319 47.595C26.2924 47.595 26.8677 47.55 27.4355 47.46C30.238 47.01 32.7234 45.39 34.9138 43.965C37.0378 42.585 39.4494 41.0175 40.9023 38.6325C41.7651 37.215 42.2371 35.5875 42.687 34.02C43.2475 32.085 43.7711 30.2625 44.9659 28.8C45.46 28.2 46.0353 27.69 46.6474 27.1575C47.1268 26.7375 47.6209 26.31 48.0634 25.83C49.3393 24.4575 49.8776 22.8975 49.5384 21.5475C49.4794 21.3 49.3835 21.075 49.2729 20.85V20.8575ZM27.2733 26.4825C27.288 26.3325 27.288 26.1825 27.2733 26.04C27.288 26.1825 27.3028 26.325 27.2807 26.46C27.2807 26.4675 27.2806 26.475 27.2733 26.4825ZM26.9193 21.7125C26.9193 21.7125 26.9193 21.69 26.9266 21.6825C26.9266 21.69 26.9266 21.705 26.9193 21.7125ZM10.9008 36.8775C10.9155 36.735 10.9377 36.5925 10.9598 36.45C10.9303 36.5925 10.9155 36.735 10.9008 36.8775ZM11.6162 37.065C11.8595 34.11 14.9202 32.235 17.7005 31.47C18.5191 31.245 19.382 31.0575 20.2154 30.885C22.3984 30.42 24.6552 29.94 26.5284 28.62C27.4134 27.9975 27.9075 27.3075 28.0034 26.565C28.0772 25.9725 27.9075 25.44 27.7305 24.915C27.6789 24.7575 27.6273 24.6 27.583 24.4425C26.7792 21.51 29.1244 18.495 31.7646 17.3925C36.3888 15.45 42.5985 16.2675 46.876 19.3725C47.4144 19.7625 48.0191 20.265 48.4248 20.88C48.115 21.45 47.7168 21.915 47.466 22.17C47.0309 22.62 46.5294 23.04 46.05 23.445C45.4158 23.9775 44.7668 24.525 44.2136 25.1775C42.8714 26.76 42.274 28.7475 41.6988 30.6675C41.2415 32.19 40.7695 33.765 39.9288 35.0925C38.5128 37.335 36.0864 38.85 33.9476 40.185C31.7278 41.5725 29.2129 43.1475 26.4546 43.575C22.6049 44.175 18.7994 42.5175 15.9084 41.01C14.4113 40.23 12.7814 39.165 11.6309 37.86C11.6088 37.605 11.6014 37.3425 11.6235 37.0725L11.6162 37.065ZM48.8746 19.485C48.882 19.3725 48.8968 19.2525 48.8968 19.14C48.8968 19.26 48.8894 19.3725 48.8746 19.485ZM48.8378 19.785C48.8378 19.785 48.8525 19.74 48.8525 19.7175C48.8525 19.74 48.8378 19.7625 48.8378 19.785Z" fill="#1D1D1B"/>
</svg>
