<svg width="60" height="60" viewBox="0 0 60 60" fill="none" xmlns="http://www.w3.org/2000/svg">
<path d="M50.1979 38.4526C50.1679 38.2576 49.9579 36.795 49.6579 34.725C49.6654 34.725 49.6804 34.725 49.6879 34.7176L49.6354 34.5826C48.8704 29.3176 47.5279 20.3326 47.0554 18.2101C46.4104 15.3226 44.3554 14.85 43.2904 15H13.3729C10.5679 15 9.27038 16.9801 8.97788 18.0301C8.97038 18.0601 8.96288 18.0975 8.95538 18.1275L6.01538 37.8676C5.97788 38.1001 6.05288 38.34 6.21038 38.5201C11.1079 44.0176 22.9879 44.49 26.8729 44.49C27.5704 44.49 28.0129 44.475 28.1029 44.4675C43.0204 44.4675 49.6204 39.4125 49.8979 39.195C50.1229 39.015 50.2354 38.7376 50.1979 38.4526ZM10.5304 18.42C10.6429 18.0975 11.2579 16.5901 13.3729 16.5901H43.3504C43.3879 16.5901 43.4404 16.5901 43.4779 16.5826C43.7329 16.5451 45.0229 16.4625 45.4954 18.555C45.9229 20.46 47.1079 28.3575 47.8879 33.6675C41.8954 35.7675 36.0529 36.6376 30.7729 36.8025L39.4054 31.1926C39.7729 30.9525 39.8779 30.4575 39.6379 30.09C39.3979 29.7225 38.9029 29.6176 38.5354 29.8576L27.8029 36.8326C24.4504 36.7801 21.3679 36.465 18.6829 36.0375L27.7129 30.1726C28.0804 29.9325 28.1854 29.4375 27.9454 29.07C27.7054 28.7025 27.2104 28.5976 26.8429 28.8376L16.3804 35.6325C12.3379 34.845 9.46538 33.885 8.29538 33.4576L10.5379 18.4275L10.5304 18.42ZM28.0804 42.8625C27.9304 42.8625 13.1479 43.3576 7.65788 37.7176L8.05538 35.0551C9.41288 35.5351 12.1654 36.405 15.9004 37.1475C16.0504 37.275 16.2304 37.3426 16.4254 37.3426C16.5079 37.3426 16.5979 37.3275 16.6804 37.2976C24.3979 38.73 35.9329 39.4725 48.1279 35.2725C48.3154 36.5775 48.4654 37.6126 48.5479 38.1826C46.9954 39.195 40.5079 42.8625 28.0804 42.8625Z" fill="#1D1D1B"/>
</svg>
