<svg width="60" height="60" viewBox="0 0 60 60" fill="none" xmlns="http://www.w3.org/2000/svg">
<path d="M39.2852 18.3976L31.8227 14.3701C31.0802 13.9726 30.2477 13.7626 29.4152 13.7626H28.9877V11.2876C28.9877 9.91505 27.8702 8.80505 26.4902 8.80505H23.4752C22.0952 8.80505 20.9777 9.92255 20.9777 11.2876V13.7626H20.7227C18.8627 13.7626 17.3477 15.2701 17.3477 17.1226V41.9476C17.3477 44.1076 19.1177 45.8701 21.2927 45.8701H37.9802C40.1552 45.8701 41.9252 44.1076 41.9252 41.9476V22.8226C41.9252 20.9776 40.9202 19.2901 39.2852 18.4051V18.3976ZM19.4552 41.9401V17.1151C19.4552 16.4251 20.0252 15.8626 20.7227 15.8626H29.4152C29.9027 15.8626 30.3902 15.9826 30.8177 16.2151L38.2802 20.2426C39.2252 20.7526 39.8102 21.7351 39.8102 22.8076V41.9401C39.8102 42.9451 38.9852 43.7551 37.9727 43.7551H21.2852C20.2727 43.7551 19.4477 42.9376 19.4477 41.9401H19.4552ZM23.0852 13.7626V11.2876C23.0852 11.0776 23.2577 10.9051 23.4677 10.9051H26.4827C26.6927 10.9051 26.8652 11.0776 26.8652 11.2876V13.7626H23.0777H23.0852Z" fill="#1D1D1B"/>
<path d="M29.6322 36.6075C32.2272 36.6075 34.3422 34.5 34.3422 31.9125C34.3422 29.625 31.0947 25.7625 30.4497 25.0125L29.6322 24.075L28.8222 25.0125C28.1697 25.7625 24.9297 29.6175 24.9297 31.9125C24.9297 34.5 27.0447 36.6075 29.6397 36.6075H29.6322ZM27.0747 31.9125C27.0747 31.1625 28.1097 29.355 29.6322 27.4125C31.1547 29.355 32.1897 31.1625 32.1897 31.9125C32.1897 33.315 31.0422 34.4625 29.6322 34.4625C28.2222 34.4625 27.0747 33.3225 27.0747 31.9125Z" fill="#1D1D1B"/>
</svg>
