<svg width="60" height="60" viewBox="0 0 60 60" fill="none" xmlns="http://www.w3.org/2000/svg">
<path d="M46.3206 24.87L42.7731 19.6125H36.9681L37.0131 23.0475C35.0181 23.97 32.8806 24.51 30.6681 24.6675L29.7006 24.735L28.7631 24.705C26.6106 24.63 24.5106 24.1875 22.5306 23.3775L21.8106 23.115V19.6125H16.4406L13.7631 24.45H9.01562V36.5926L9.75812 36.8626C15.8556 39.0526 22.2231 40.2376 28.7031 40.3726L29.6256 40.3951H29.6781H29.8431L30.7581 40.38C37.4031 40.29 43.9431 39.1051 50.1906 36.8626L50.9331 36.5926L50.9706 24.8775H46.3056L46.3206 24.87ZM27.6006 38.0775C22.0281 37.845 16.5381 36.8175 11.2656 34.995V26.6925H13.8381C14.6106 26.6925 15.3231 26.265 15.6981 25.5825L17.7606 21.855H19.5531V23.1075C19.5531 24.0075 20.0781 24.8025 20.9031 25.14L21.6756 25.455C23.5656 26.22 25.5531 26.7 27.5931 26.88V38.0775H27.6006ZM48.6981 34.995C43.2681 36.87 37.6206 37.9051 31.8756 38.0926V26.8051C33.9906 26.5501 36.0306 25.9725 37.9581 25.0875C38.7231 24.735 39.2181 23.955 39.2181 23.0925V21.855H41.5731L44.4756 26.1675C44.8731 26.76 45.5331 27.1126 46.2381 27.1126H48.7131L48.6906 34.9876L48.6981 34.995Z" fill="#1D1D1B"/>
</svg>
