<svg width="202" height="77" viewBox="0 0 202 77" fill="none" xmlns="http://www.w3.org/2000/svg">
<path d="M43.1791 27.642L39.7578 23.8281H51.5252V44.7868H42.1167V41.4006H36.5526L34.4098 44.7868H24.7852L36.5526 27.6331H43.1881L43.1791 27.642ZM44.0344 28.4886L38.9025 36.954H43.1791L44.0344 28.4886Z" fill="white"/>
<path d="M78.2676 24.0419H63.295C63.295 24.0419 59.0184 23.4092 56.8755 28.0607C54.7327 32.7212 53.0221 39.9213 53.0221 39.9213C53.0221 39.9213 51.3115 43.9491 56.6595 44.3679H71.6321L73.1267 39.4936H64.5734C64.5734 39.4936 63.286 38.647 63.9342 35.6797C64.5734 32.7123 66.077 29.7538 66.077 29.7538C66.077 29.7538 65.8609 28.0607 68.8591 28.0607H76.557L78.2676 24.0419Z" fill="white"/>
<path d="M98.3809 24.042C105.656 24.2559 102.234 31.0282 102.234 31.0282C102.234 31.0282 100.308 36.954 98.597 40.768C96.8864 44.5819 92.8168 44.5819 92.8168 44.5819L73.5586 44.7957L79.7619 27.8559H87.6759L82.3279 24.2559L98.3719 24.042H98.3809ZM89.3956 28.2747L85.1189 39.9214L88.1171 40.1353C88.1171 40.1353 89.4046 40.3491 90.467 38.0144C91.5384 35.6887 92.8168 30.3955 92.8168 30.3955C92.8168 30.3955 93.9873 27.4371 89.3956 28.2747Z" fill="white"/>
<path d="M111.283 41.4006C113.651 42.6748 116.127 39.2708 116.127 39.2708H122.69C122.69 39.2708 122.582 40.3312 119.89 42.8887C117.198 45.4462 109.995 44.5907 109.995 44.5907C109.995 44.5907 101.82 45.4462 101.604 39.6896C101.388 33.942 106.664 29.7895 106.664 29.7895C106.664 29.7895 111.076 26.1716 119.683 28.4083C126.769 30.244 123.446 37.248 123.446 37.248H109.788C109.788 37.248 108.924 40.1263 111.292 41.4006H111.283ZM116.55 34.5836C116.55 34.5836 117.414 32.1331 114.074 32.0262C110.743 31.9192 110.959 34.3698 110.959 34.3698L116.55 34.5836Z" fill="white"/>
<path d="M130.529 22.7676L122.246 44.5906H130.853L138.389 22.6606L130.529 22.7676Z" fill="white"/>
<path d="M147.96 28.0875C147.96 28.0875 138.498 27.134 136.022 35.0113C133.546 42.8887 136.985 45.1253 144.089 45.0184C151.193 44.9115 153.66 44.056 156.352 38.95H147.852C147.852 38.95 147.42 41.2936 144.629 40.7589C141.829 40.2243 144.521 35.1183 144.521 35.1183C144.521 35.1183 145.439 31.1261 147.96 31.8212C149.896 32.3559 149.14 34.4856 149.14 34.4856H157.531C157.531 34.4856 158.395 27.4548 147.96 28.0964V28.0875Z" fill="white"/>
<path d="M178.403 37.5689C175.585 45.4373 166.465 44.8046 166.465 44.8046C166.465 44.8046 154.274 46.0165 157.101 36.4996C159.793 27.446 170.12 28.1945 170.12 28.1945C170.12 28.1945 181.95 27.6599 178.403 37.56V37.5689ZM169.481 31.9282C169.481 31.9282 167.437 30.7609 165.717 36.0808C163.998 41.4006 166.474 40.7679 166.474 40.7679C166.474 40.7679 168.734 41.9353 170.129 36.8293C171.525 31.7144 169.481 31.9282 169.481 31.9282Z" fill="white"/>
<path d="M182.201 21.8943C183.867 21.8943 185.181 23.2309 185.181 24.8973C185.181 26.5637 183.858 27.9181 182.183 27.9181C180.508 27.9181 179.176 26.5993 179.176 24.8973C179.176 23.1953 180.526 21.8943 182.183 21.8943H182.192H182.201ZM182.183 22.3666C180.85 22.3666 179.752 23.4983 179.752 24.9062C179.752 26.3141 180.85 27.4548 182.192 27.4548C183.542 27.4726 184.623 26.332 184.623 24.9151C184.623 23.4983 183.542 22.3666 182.192 22.3666H182.183ZM181.616 26.6528H181.075V23.3022C181.355 23.2577 181.634 23.222 182.039 23.222C182.552 23.222 182.885 23.329 183.092 23.4715C183.29 23.623 183.398 23.8458 183.398 24.1666C183.398 24.6121 183.101 24.8706 182.741 24.9864V25.0131C183.038 25.0666 183.236 25.3339 183.308 25.833C183.389 26.3498 183.47 26.5547 183.524 26.6617H182.957C182.876 26.5547 182.795 26.2518 182.732 25.8062C182.651 25.3785 182.435 25.2181 182.003 25.2181H181.625V26.6617L181.616 26.6528ZM181.616 24.7993H182.003C182.453 24.7993 182.822 24.6389 182.822 24.2201C182.822 23.926 182.606 23.6319 182.003 23.6319C181.823 23.6319 181.706 23.6498 181.616 23.6587V24.7993Z" fill="white"/>
<path d="M22.2042 49.5095L17.9727 55.0967L178.197 49.5095H22.2042Z" fill="white"/>
</svg>
