<svg width="67" height="24" viewBox="0 0 67 24" fill="none" xmlns="http://www.w3.org/2000/svg">
<path d="M7.10618 11.9714H11.8046C11.8046 5.58271 6.61915 0.397278 0.230469 0.397278V5.09568C4.04076 5.09568 7.1205 8.17542 7.1205 11.9857L7.10618 11.9714Z" fill="#CEA459"/>
<path d="M18.3507 11.9714H13.6523C13.6523 18.3601 18.8378 23.5455 25.2264 23.5455V18.8471C21.4162 18.8471 18.3364 15.7674 18.3364 11.9571L18.3507 11.9714Z" fill="#CEA459"/>
<path d="M66.4367 0.425964H61.7383V12.0001H66.4367V0.425964Z" fill="#CEA459"/>
<path d="M43.3195 12H38.6211V23.5741H43.3195V12Z" fill="#CEA459"/>
<path d="M61.7694 0.425946C55.3807 0.425946 50.1953 5.61138 50.1953 12.0001H54.8937C54.8937 8.18977 57.9735 5.11002 61.7837 5.11002V0.411621L61.7694 0.425946Z" fill="#CEA459"/>
<path d="M0.217442 18.8614V23.5598C6.60612 23.5598 11.7916 18.3743 11.7916 11.9857H7.09315C7.09315 15.7959 4.01341 18.8757 0.203125 18.8757L0.217442 18.8614Z" fill="#5E5E60"/>
<path d="M25.2421 0.382916C18.8534 0.382916 13.668 5.56834 13.668 11.957H18.3664C18.3664 8.14673 21.4461 5.06699 25.2564 5.06699V0.368591L25.2421 0.382916Z" fill="#5E5E60"/>
<path d="M36.8163 9.65076H25.2422V14.3492H31.7168C30.7571 16.9848 28.2217 18.8757 25.2422 18.8757V23.5741C31.6309 23.5741 36.8163 18.3886 36.8163 12C36.8163 12 36.8163 11.914 36.8163 11.871V9.66508V9.65076Z" fill="#5E5E60"/>
<path d="M54.8781 12H50.1797V23.5741H54.8781V12Z" fill="#5E5E60"/>
<path d="M66.4406 12H61.7422V23.5741H66.4406V12Z" fill="#5E5E60"/>
<path d="M43.3195 0.425842H38.6211V11.9999H43.3195V0.425842Z" fill="#5E5E60"/>
<path d="M43.3034 0.425946C49.6921 0.425946 54.8775 5.61138 54.8775 12.0001H50.1791C50.1791 8.18977 47.0994 5.11002 43.2891 5.11002V0.411621L43.3034 0.425946Z" fill="#5E5E60"/>
</svg>
