<svg width="181" height="54" viewBox="0 0 181 54" fill="none" xmlns="http://www.w3.org/2000/svg">
<path d="M114.106 26.9714H118.805C118.805 20.5827 113.619 15.3973 107.23 15.3973V20.0957C111.041 20.0957 114.12 23.1754 114.12 26.9857L114.106 26.9714Z" fill="#CEA459"/>
<path d="M125.351 26.9714H120.652C120.652 33.3601 125.838 38.5455 132.226 38.5455V33.8471C128.416 33.8471 125.336 30.7674 125.336 26.9571L125.351 26.9714Z" fill="#CEA459"/>
<path d="M173.437 15.426H168.738V27.0001H173.437V15.426Z" fill="#CEA459"/>
<path d="M150.319 27H145.621V38.5741H150.319V27Z" fill="#CEA459"/>
<path d="M168.769 15.4259C162.381 15.4259 157.195 20.6114 157.195 27.0001H161.894C161.894 23.1898 164.973 20.11 168.784 20.11V15.4116L168.769 15.4259Z" fill="#CEA459"/>
<path d="M107.217 33.8614V38.5598C113.606 38.5598 118.792 33.3743 118.792 26.9857H114.093C114.093 30.7959 111.013 33.8757 107.203 33.8757L107.217 33.8614Z" fill="#5E5E60"/>
<path d="M132.242 15.3829C125.853 15.3829 120.668 20.5683 120.668 26.957H125.366C125.366 23.1467 128.446 20.067 132.256 20.067V15.3686L132.242 15.3829Z" fill="#5E5E60"/>
<path d="M143.816 24.6508H132.242V29.3492H138.717C137.757 31.9848 135.222 33.8757 132.242 33.8757V38.5741C138.631 38.5741 143.816 33.3886 143.816 27C143.816 27 143.816 26.914 143.816 26.871V24.6651V24.6508Z" fill="#5E5E60"/>
<path d="M161.878 27H157.18V38.5741H161.878V27Z" fill="#5E5E60"/>
<path d="M173.441 27H168.742V38.5741H173.441V27Z" fill="#5E5E60"/>
<path d="M150.319 15.4258H145.621V26.9999H150.319V15.4258Z" fill="#5E5E60"/>
<path d="M150.303 15.4259C156.692 15.4259 161.877 20.6114 161.877 27.0001H157.179C157.179 23.1898 154.099 20.11 150.289 20.11V15.4116L150.303 15.4259Z" fill="#5E5E60"/>
<path d="M92.8204 8.00586H92.2617V43.8168H92.8204V8.00586Z" fill="#5E5E60"/>
<path fill-rule="evenodd" clip-rule="evenodd" d="M70.276 12.9907H54.204V8.00586H31.3136V12.9907H14.1244L7.53516 25.897H31.3136V30.8819H54.204V25.897H71.4506L78.0398 12.9907H70.276ZM66.6376 23.0035H51.3105V27.9884H34.2072V23.0035H15.2847L18.923 15.8843H34.1928V10.8994H51.2962V15.8843H70.2617L66.6233 23.0035H66.6376Z" fill="#5E5E60"/>
<path d="M14.6973 38.5311V37.5284H9.88427C8.88156 37.5284 8.35156 37.8865 8.35156 39.1327V41.9546C8.35156 43.1865 8.89589 43.5446 9.88427 43.5446H14.8405V42.5276H10.7151C10.4286 42.5276 10.357 42.456 10.357 42.1695V38.8749C10.357 38.6027 10.4286 38.5311 10.7151 38.5311H14.6973Z" fill="#5E5E60"/>
<path d="M21.6008 37.5284V39.8919H18.3778V37.5284H16.3438V43.5446H18.3778V40.8516H21.6008V43.5446H23.6349V37.5284H21.6008Z" fill="#5E5E60"/>
<path d="M32.4005 38.5311L34.2483 42.8714C34.3916 43.1865 34.6351 43.5303 35.1651 43.5303H37.0559C37.5859 43.5303 37.7578 43.1865 37.9011 42.8714C38.0443 42.5562 40.1643 37.514 40.1643 37.514H38.6173L36.6548 42.4416C36.6119 42.5276 36.5832 42.5419 36.44 42.5419C36.311 42.5419 36.2681 42.5419 36.2251 42.4416L34.277 37.514H26.6994C25.6967 37.514 25.1523 37.8721 25.1523 39.1184V41.9546C25.1523 43.1865 25.6967 43.5303 26.6994 43.5303H31.8132V42.5132H27.5302C27.2437 42.5132 27.1721 42.4416 27.1721 42.1551V40.9232H31.4264V39.9349H27.1721V38.8749C27.1721 38.6027 27.2437 38.5311 27.5302 38.5311H32.3862H32.4005Z" fill="#5E5E60"/>
<path d="M52.025 38.5168H54.6177C54.9042 38.5168 54.9615 38.5884 54.9615 38.8606V42.1695C54.9615 42.456 54.8899 42.5276 54.6177 42.5276H52.025C51.7385 42.5276 51.6812 42.456 51.6812 42.1695V38.8606C51.6812 38.5884 51.7385 38.5168 52.025 38.5168ZM56.9812 39.1184C56.9812 37.8722 56.4369 37.5284 55.4342 37.5284H51.2085C50.2201 37.5284 49.6758 37.8722 49.6758 39.1184V41.9546C49.6758 43.1865 50.2201 43.5303 51.2085 43.5303H55.4342C56.4369 43.5303 56.9812 43.1865 56.9812 41.9546V39.1184Z" fill="#5E5E60"/>
<path d="M60.4221 42.5276V37.5284H58.4023V43.5446H64.0605V42.5276H60.4221Z" fill="#5E5E60"/>
<path d="M66.0509 37.5284C65.0626 37.5284 64.5039 37.8865 64.5039 39.1327V41.9546C64.5039 43.1865 65.0482 43.5446 66.0509 43.5446H71.1647V42.5276H66.8818C66.5953 42.5276 66.5236 42.456 66.5236 42.1695V40.9376H70.7637V39.9349H66.5236V38.8749C66.5236 38.6027 66.5953 38.5311 66.8818 38.5311H73.5712V43.5446H75.591V38.5311H77.9115V37.5284H66.0509Z" fill="#5E5E60"/>
<path d="M46.3118 41.5822L45.6385 41.267V41.2097H47.1139C47.7872 41.2097 48.4031 40.823 48.4031 39.9206V38.8892C48.4031 37.8865 47.8874 37.5284 47.1139 37.5284H40.7969V43.5446H42.8023V38.5168H46.1399C46.3261 38.5168 46.3691 38.5741 46.3834 38.6743V40.1784C46.3834 40.2787 46.2688 40.336 46.1399 40.336H43.3753V41.2527L46.1685 43.5446H48.9475L46.3118 41.5965V41.5822Z" fill="#5E5E60"/>
</svg>
