<svg width="150" height="150" viewBox="0 0 150 150" fill="none" xmlns="http://www.w3.org/2000/svg">
<path d="M75 140.887C111.388 140.887 140.887 111.388 140.887 75C140.887 38.6118 111.388 9.11328 75 9.11328C38.6118 9.11328 9.11328 38.6118 9.11328 75C9.11328 111.388 38.6118 140.887 75 140.887Z" fill="#F1F1F1"/>
<path d="M109.696 71.1523C109.231 70.8711 108.789 70.6055 108.551 70.4023C107.723 69.707 106.84 68.5937 105.989 67.5195C104.895 66.1406 103.864 64.8398 102.813 64.2031C102.492 64.0078 102.145 63.8594 101.809 63.7187C101.473 63.5781 101.16 63.4414 100.953 63.2969C100 62.6133 98.8831 61.3398 97.8011 60.1133C96.8753 59.0625 95.9182 57.9726 95.0003 57.1758C94.0823 56.375 89.6057 53.0937 88.0159 52.7266C86.5315 52.3828 86.2346 52.2734 84.9495 51.3164C84.1409 50.7148 83.8245 50.2383 83.4534 49.6875C83.1839 49.2851 82.8792 48.832 82.387 48.3398C80.6682 46.625 78.5354 47.6328 77.7307 48.0117C77.5432 48.1016 77.3479 48.2344 77.1409 48.375C77.0706 48.4219 76.9768 48.4883 76.8831 48.5469C76.7737 48.2812 76.7034 47.9727 76.6214 47.6328C76.5081 47.1641 76.3831 46.6289 76.1292 46.1172C75.0276 43.8867 70.6096 39.4297 68.3831 38.3008C67.68 37.9453 66.9534 37.7695 66.2464 37.6055C65.7151 37.4805 65.2112 37.3594 64.7581 37.168C64.3518 36.9961 64.0159 36.7578 63.6604 36.5078C62.8284 35.918 61.7893 35.1875 60.0393 35.8008C59.6292 35.9453 59.2464 36.1875 58.8792 36.4258C58.6175 36.5937 58.2542 36.8242 58.0862 36.8594C57.4846 36.9805 56.7971 36.9297 56.0667 36.8711C55.1878 36.8047 54.1917 36.7266 53.1839 36.9609C51.6409 37.3203 51.1526 38.3867 50.7581 39.2422C50.6253 39.5273 50.5042 39.7969 50.344 40.0547C50.1643 40.3437 49.9534 40.6133 49.7542 40.8711C49.0862 41.7266 48.3323 42.6992 48.6253 44.4375C48.7034 44.9023 48.9143 45.2851 49.0784 45.5898C49.1682 45.7539 49.2542 45.9101 49.2932 46.0351C49.5432 46.7969 49.3792 49.9453 49.1487 51.5195C49.0198 52.3828 48.3636 53.1875 47.6643 54.043C46.8284 55.0664 45.9612 56.1289 45.8597 57.4805C45.8245 57.9609 45.8909 58.4258 45.9495 58.8398C46.0081 59.2422 46.0628 59.6211 46.012 59.8516C45.9768 59.9336 45.8011 60.1289 45.6839 60.2617C45.4378 60.5352 45.1604 60.8477 44.9964 61.2383C44.4768 62.4766 44.805 63.6719 45.0979 64.7226C45.2737 65.3633 45.4417 65.9726 45.4104 66.5273C45.4026 66.6875 45.344 66.9258 45.2854 67.1523C45.1995 67.5078 45.1097 67.8711 45.1097 68.2422C45.1097 68.8086 45.2854 69.4062 45.4573 69.9844C45.5823 70.4101 45.7112 70.8516 45.7151 71.125C45.7229 71.4414 45.4807 71.9219 45.2425 72.3906C44.9339 73 44.5862 73.6875 44.5081 74.4726C44.4456 75.1445 44.5667 76.0742 44.6956 77.0586C44.8167 77.9922 45.0706 79.9297 44.7971 80.3476C44.7073 80.418 44.4651 80.5508 44.2971 80.6406C43.8753 80.875 43.4378 81.1133 43.1331 81.4414C42.0745 82.5859 42.2815 83.6758 42.4339 84.4726C42.5003 84.8125 42.555 85.1055 42.5198 85.3789C42.4846 85.6367 42.2151 85.9766 41.9261 86.3359C41.4026 86.9922 40.7464 87.8086 40.762 89.0078C40.7737 89.9219 41.2112 90.5859 41.5667 91.1172C41.7073 91.332 41.844 91.5312 41.9261 91.7187C42.1604 92.2344 42.3557 92.8594 42.5511 93.4648C42.762 94.1289 42.9807 94.8164 43.2542 95.3867C43.7268 96.3711 45.1643 97.8281 47.1448 99.7812C47.9026 100.527 48.6175 101.234 49.0237 101.699C49.1331 101.824 49.2932 102.07 49.4495 102.305C49.9886 103.129 50.6018 104.062 51.5393 104.227C52.0511 104.316 52.7581 104.098 54.0667 103.664C54.8401 103.41 55.8011 103.09 56.2503 103.059C57.8284 102.953 58.2971 103.375 59.2346 104.215C59.5667 104.512 59.9417 104.848 60.4065 105.195C62.5354 106.777 64.1409 107.379 66.0003 108.078C66.5745 108.293 67.1643 108.516 67.8245 108.785C68.344 108.996 68.6917 109.207 69.0237 109.406C69.9651 109.977 70.6721 110.309 72.5511 110.121C73.9261 109.984 75.0667 109.332 76.0745 108.758C77.6839 107.84 78.8479 107.18 80.6448 108.277C81.0276 108.512 81.3362 108.828 81.6604 109.16C82.3089 109.828 83.0432 110.582 84.43 110.723C84.9612 110.777 85.4417 110.801 85.887 110.801C88.1057 110.801 89.3831 110.187 90.8206 109.5C91.5784 109.137 92.3596 108.762 93.387 108.422C93.9768 108.227 94.5628 108.102 95.18 107.973C96.3831 107.719 97.6253 107.461 98.8557 106.645C100.739 105.395 106.676 98.2578 107.379 96.1172C107.711 95.1055 108.547 90.1016 108.387 89.0156C108.246 88.0859 107.66 87.0234 107.039 85.8984C106.59 85.0859 106.125 84.2461 105.949 83.625L105.938 83.5859C106.149 83.4453 106.547 83.2539 106.805 83.1289C107.285 82.8984 107.785 82.6562 108.137 82.3594C108.403 82.1367 108.668 81.7969 108.903 81.4961L109.028 81.3359C109.598 80.6172 112.614 76.1055 112.742 74.5859C112.871 73.0742 111.176 72.0469 109.68 71.1406L109.696 71.1523ZM106.598 79.5859C106.278 79.9531 105.766 80.2461 105.227 80.5586C104.067 81.2266 102.313 82.2344 103.078 84.5781C103.289 85.2187 103.735 86.0547 104.203 86.9414C104.676 87.832 105.395 89.1797 105.418 89.6484C105.465 90.5664 104.739 94.7226 104.328 95.5391C103.317 97.5586 98.9925 102.809 97.3206 104.055C96.5354 104.641 95.4065 104.887 94.2151 105.148C93.5081 105.305 92.7776 105.465 92.1018 105.707C91.4221 105.949 90.762 106.289 90.1214 106.617C89.1331 107.125 88.1995 107.605 87.2737 107.715C86.6331 107.789 84.8636 107.793 84.4456 107.707C84.2737 107.598 83.8636 107.191 83.5901 106.918C83.0901 106.422 82.5745 105.91 82.0979 105.625C79.0081 103.801 76.6487 105.059 74.7542 106.07C73.4026 106.789 72.2347 107.414 70.9182 107.121C70.8011 107.078 70.4573 106.855 70.2347 106.711C69.8636 106.469 69.4807 106.215 69.1214 106.07C68.3792 105.762 67.7229 105.52 67.0862 105.285C65.3323 104.637 63.9495 104.125 62.1057 102.711C61.6995 102.398 61.3636 102.105 61.0354 101.824C59.7659 100.719 58.762 99.8476 55.9729 100.062C55.5003 100.098 54.7581 100.32 53.8987 100.574C53.3987 100.723 52.6292 100.953 52.1956 101.039C52.1292 100.934 52.055 100.82 52.0003 100.727C51.762 100.34 51.6057 100.094 51.4573 99.9219C50.8753 99.2422 50.0745 98.457 49.2268 97.625C47.9964 96.418 46.6018 95.0508 46.0354 94.1094C45.8675 93.8281 45.6292 93.0898 45.4378 92.5C45.2581 91.9492 45.0901 91.4258 44.9143 91.0234C44.7932 90.7461 44.6097 90.4336 44.4104 90.0976C44.219 89.7695 43.8596 89.1641 43.8284 88.9805C43.8245 88.793 44.1526 88.3476 44.3948 88.0195C44.8948 87.3476 45.5159 86.5117 45.5511 85.4101C45.5628 85.0625 45.4925 84.7266 45.43 84.3984C45.3753 84.1211 45.2893 83.707 45.3557 83.5781C45.4182 83.4492 45.8128 83.2187 46.0432 83.0781C46.4026 82.8672 46.7737 82.6484 47.0667 82.3281C48.2581 81.0351 47.9612 78.9375 47.7034 77.0898C47.5745 76.1641 47.4495 75.293 47.5315 74.7031C47.5784 74.3672 47.7854 73.9687 48.0042 73.5469C48.3401 72.8984 48.7229 72.1641 48.7425 71.2812C48.7581 70.6484 48.5667 70.0195 48.3948 69.4648C48.2659 69.0508 48.1487 68.6562 48.1409 68.3633C48.1331 68.0742 48.1956 67.7656 48.262 67.4102C48.3675 66.8555 48.4925 66.2226 48.4026 65.4531C48.3518 65 48.1878 64.5 48.0276 64.0156C47.8675 63.5352 47.6721 62.9375 47.6995 62.6523C47.7112 62.5156 47.9182 62.2617 48.1018 62.0391C48.4378 61.6289 48.8518 61.1133 48.9768 60.3906C49.0862 59.7617 49.0042 59.1641 48.9339 58.6406C48.8714 58.1836 48.8128 57.7539 48.9065 57.4453C49.0042 57.125 49.6565 56.3398 50.0901 55.8203C50.5393 55.2812 50.9651 54.7695 51.2268 54.3281C52.3909 52.3437 52.5315 47.9531 52.3479 46.043C52.2932 45.4609 52.0706 44.9726 51.8753 44.543C51.6995 44.1601 51.5511 43.8281 51.5862 43.5742C51.6487 43.2891 52.262 42.457 52.5589 42.0586C52.7542 41.793 52.9417 41.5391 53.0745 41.332C53.2112 41.1172 53.3245 40.8672 53.4339 40.6289C53.5276 40.4219 53.6956 40.0508 53.805 39.9336C54.0784 39.8594 54.93 39.7344 55.137 39.7305C55.4729 39.7305 55.8596 39.7734 56.2542 39.8164C56.9417 39.8945 57.7229 39.9844 58.5589 39.8437C59.1487 39.7461 59.719 39.4023 60.2698 39.0703C60.5706 38.8867 61.0706 38.5859 61.2776 38.5547C61.469 38.6289 61.9221 38.9375 62.2307 39.1484C62.7503 39.5039 63.2893 39.8672 63.7776 40.0547C64.2972 40.2578 64.8401 40.3789 65.3675 40.4961C65.9612 40.6289 66.5198 40.7539 66.9729 40.9766C68.7268 41.832 72.8284 46.0312 73.5198 47.6836C73.6409 47.9687 73.7229 48.3125 73.805 48.6758C74.0315 49.6445 74.3167 50.8516 75.5706 51.5664C76.6761 52.1992 77.7854 51.5273 78.6721 50.9922C79.719 50.3594 80.0354 50.2656 80.3011 50.5195C80.3909 50.6055 80.5667 50.9336 80.6682 51.1289C80.8206 51.418 80.9807 51.7148 81.1761 51.957C81.9964 52.9883 84.5745 54.9141 85.7698 55.3906C86.2425 55.5781 86.6643 55.6172 87.0003 55.6484C87.2268 55.668 87.4065 55.6836 87.5589 55.7422C88.719 56.1758 92.2503 58.7695 93.4261 59.8125C94.262 60.5547 95.094 61.4961 95.9026 62.4102C96.9221 63.5664 97.9768 64.7578 99.1175 65.6445C99.6448 66.0547 100.141 66.2969 100.582 66.5078C101.176 66.793 101.641 67.0195 102.145 67.6211C102.547 68.1016 102.946 68.6094 103.328 69.1055C104.434 70.5234 105.578 71.9922 107.133 73.1641C107.586 73.5078 108.063 73.7734 108.524 74.0312C108.899 74.2422 109.258 74.4414 109.582 74.6719C109.032 75.9023 107.02 79.1094 106.594 79.5976V79.5859H106.598Z" fill="black"/>
<path d="M75.4219 94.3398C66.3945 94.3398 59.0469 86.9961 59.0469 77.9648C59.0469 77.332 59.5586 76.8203 60.1914 76.8203C60.8242 76.8203 61.3359 77.332 61.3359 77.9648C61.3359 85.7305 67.6562 92.0508 75.4219 92.0508C76.0547 92.0508 76.5664 92.5625 76.5664 93.1953C76.5664 93.8281 76.0547 94.3398 75.4219 94.3398Z" fill="black"/>
<path d="M75.418 100.953C74.5313 100.953 73.8086 100.234 73.8086 99.3438C73.8086 98.4531 74.5273 97.7344 75.418 97.7344C86.3203 97.7344 95.1875 88.8633 95.1875 77.9609C95.1875 77.0742 95.9063 76.3516 96.7969 76.3516C97.6875 76.3516 98.4062 77.0703 98.4062 77.9609C98.4062 90.6367 88.0938 100.949 75.4219 100.949L75.418 100.953Z" fill="black"/>
<path d="M90.6523 79.1133C90.0195 79.1133 89.5078 78.6016 89.5078 77.9688C89.5078 70.2031 83.1875 63.8828 75.4219 63.8828C74.7891 63.8828 74.2773 63.3711 74.2773 62.7383C74.2773 62.1055 74.7891 61.5938 75.4219 61.5938C84.4531 61.5938 91.7969 68.9414 91.7969 77.9688C91.7969 78.6016 91.2852 79.1133 90.6523 79.1133Z" fill="black"/>
<path d="M54.043 79.5742C53.1563 79.5742 52.4336 78.8555 52.4336 77.9648C52.4336 65.2891 62.7461 54.9766 75.4219 54.9766C76.3086 54.9766 77.0312 55.6953 77.0312 56.5859C77.0312 57.4766 76.3125 58.1953 75.4219 58.1953C64.5195 58.1953 55.6523 67.0664 55.6523 77.9648C55.6523 78.8516 54.9336 79.5742 54.043 79.5742Z" fill="black"/>
<path d="M75.4219 85.5547C79.6136 85.5547 83.0117 82.1566 83.0117 77.9648C83.0117 73.7731 79.6136 70.375 75.4219 70.375C71.2301 70.375 67.832 73.7731 67.832 77.9648C67.832 82.1566 71.2301 85.5547 75.4219 85.5547Z" fill="#F1F1F1"/>
<path d="M75.4219 88.5234C69.6016 88.5234 64.8672 83.7891 64.8672 77.9688C64.8672 72.1484 69.6016 67.4141 75.4219 67.4141C81.2422 67.4141 85.9766 72.1484 85.9766 77.9688C85.9766 83.7891 81.2422 88.5234 75.4219 88.5234ZM75.4219 73.3437C72.8711 73.3437 70.8008 75.418 70.8008 77.9648C70.8008 80.5117 72.875 82.5859 75.4219 82.5859C77.9688 82.5859 80.043 80.5117 80.043 77.9648C80.043 75.418 77.9688 73.3437 75.4219 73.3437Z" fill="#D5A14A"/>
</svg>
