<svg width="150" height="150" viewBox="0 0 150 150" fill="none" xmlns="http://www.w3.org/2000/svg">
<path d="M75 140.887C111.388 140.887 140.887 111.388 140.887 75C140.887 38.6118 111.388 9.11328 75 9.11328C38.6118 9.11328 9.11328 38.6118 9.11328 75C9.11328 111.388 38.6118 140.887 75 140.887Z" fill="#F2F2F2"/>
<path d="M116.672 82.4141L96.5004 102.285H96.1137L89.9028 96.4492L87.5161 99.7695C82.9028 104.723 74.8286 100.187 76.6332 93.668C77.4028 90.8867 79.5356 90.1055 81.6098 88.6211C81.7192 88.543 81.8715 88.6523 81.8012 88.3555L77.102 83.6484L58.1176 102.309C57.7153 102.332 57.2739 102.008 56.9692 101.773C55.1489 100.363 53.4731 97.9492 51.6489 96.4492L49.4106 99.6055C43.0512 106.234 33.7075 96.957 40.395 90.5898L43.5512 88.3516L37.7582 82.418C37.5239 81.7031 37.809 81.3867 38.227 80.8672C39.4418 79.3516 43.0356 75.7539 44.5473 74.5391C46.6137 72.8828 46.8832 75.2109 47.7426 76.5938C48.4223 77.6875 49.5903 79.5312 50.7973 80.0156C54.3793 81.457 57.7543 77.7031 55.8559 74.3398C54.7192 72.3203 52.059 71.8086 50.5629 70.5312C49.7504 69.8398 49.977 69.2734 50.5629 68.5195L62.6723 56.4102C62.7426 56.1133 62.5903 56.2188 62.4809 56.1445C60.9496 55.0508 59.2856 54.3906 58.227 52.6875C54.9145 47.3438 60.5004 40.9219 66.2543 43.4258C68.2465 44.293 69.4536 46.3242 70.5043 48.125C70.5786 48.2539 70.4614 48.3828 70.7661 48.3203C72.5903 46.8203 74.2661 44.4063 76.0864 42.9961C76.9848 42.3008 77.3598 42.3047 78.2543 42.9961L102.704 67.4453C103 67.5156 102.895 67.3633 102.969 67.2539C104.118 65.6523 104.821 63.9648 106.61 62.8789C112.348 59.3906 118.848 65.7969 115.45 71.5625C114.375 73.3828 112.442 74.3359 110.797 75.5469L116.657 81.4844V82.4102L116.672 82.4141ZM64.684 67.4531C65.4692 65.7734 66.8872 63.6563 68.5512 62.7578C73.5707 60.0508 79.3012 64.5742 77.8442 70.043C77.1254 72.75 74.6137 74.168 72.4028 75.5508L77.1254 80.2461C77.6254 80.332 82.9457 73.9922 83.9028 73.9336C84.9418 73.8711 85.6918 76.0352 86.2192 76.8516C86.8832 77.8789 87.6215 79.1602 88.7036 79.7656C91.7661 81.4805 95.3793 78.8438 94.5942 75.418C94.2778 74.0313 93.477 73.4492 92.4106 72.668C91.6254 72.0938 88.7348 70.6406 88.477 70.1172C88.102 69.3594 88.6684 68.7969 89.1332 68.2266C90.6801 66.332 92.9926 64.6367 94.6098 62.7539L77.2387 45.4102L71.1723 51.3438C69.5082 52.5781 68.7309 49.6523 67.9887 48.4961C67.6372 47.9492 67.0473 47.0898 66.6137 46.6289C64.5317 44.418 60.6372 45.1563 59.8168 48.168C59.0434 51.0039 61.0317 52.4609 63.1528 53.793C64.2543 54.4844 66.934 55.1445 65.6918 56.8203L59.7582 62.7734C59.7231 62.9609 59.8832 63.0273 59.9731 63.1406C60.6411 64.0078 63.0356 66.375 63.9106 67.0742C64.1411 67.2578 64.3559 67.4727 64.684 67.457V67.4531ZM57.977 64.5234L53.2739 69.2266C55.4028 70.6719 57.6918 71.7227 58.4067 74.4258C59.8598 79.918 54.2817 84.4023 49.2036 81.7773C47.3754 80.832 46.3871 78.8398 45.3246 77.1758L40.6293 81.8984C41.2934 83.2109 46.5981 87.4258 46.7856 88.3594C46.8559 88.7227 46.8442 89.2539 46.5707 89.5234C44.9106 90.6445 41.5668 91.9844 40.8051 93.9375C39.5629 97.1211 42.5121 100.312 45.7934 99.2344C47.0395 98.8242 47.477 98.1719 48.2114 97.1797C48.7895 96.3945 50.2387 93.5078 50.7621 93.2461C51.2426 93.0078 51.6332 93.0937 52.0395 93.4375L58.1059 99.3711L75.477 82.0273C74.6996 81.1133 69.1801 75.9297 69.1723 75.2461C69.1723 75.0664 69.2621 74.8242 69.3481 74.6602C69.6489 74.0742 72.0746 72.9805 72.8442 72.4492C73.9496 71.6875 75.2036 70.7617 75.4457 69.3398C76.1762 65.0391 71.3012 62.8125 68.4614 65.9023C67.2661 67.2031 66.6879 69.2227 65.7661 70.3008C64.809 71.4219 63.9457 70.3867 63.1411 69.6836C61.352 68.125 59.7543 66.1133 57.977 64.5156V64.5234ZM112.762 65.6563C110.68 63.5469 107.911 64.4219 106.274 66.5391C105.637 67.3672 104.098 70.4766 103.52 70.7305C103.352 70.8047 103.223 70.8555 103.032 70.8438C102.063 70.7852 96.7387 64.4102 96.309 64.5938L91.684 69.2305L95.0043 71.6172C101 77.6328 92.9067 86.4727 86.3559 81.0391L83.5864 77.332L78.8832 82.0352L84.8207 87.9727C85.4926 88.6055 85.1684 89.3477 84.5122 89.8281C82.9536 90.9688 80.3129 91.6562 79.3168 93.5781C77.5317 97.0117 81.0043 100.707 84.5395 99.1094C85.3481 98.7461 85.9848 97.9102 86.5004 97.2148C87.1098 96.3945 88.4653 93.5312 89.0239 93.2539C89.5043 93.0156 89.895 93.1016 90.3012 93.4453L96.1567 99.3203L96.5473 99.2422L113.731 82.0117C113.047 80.6992 107.676 76.4297 107.563 75.4062C107.536 75.1602 107.555 74.9023 107.606 74.6602C108.723 73.6055 110.278 73.1016 111.567 72.1445C113.715 70.5469 114.942 67.8672 112.762 65.6602V65.6563Z" fill="black"/>
<path d="M64.6842 67.4531C65.4693 65.7734 66.8873 63.6563 68.5514 62.7578C73.5709 60.0508 79.3014 64.5742 77.8443 70.043C77.1256 72.75 74.6139 74.168 72.4029 75.5508L77.1256 80.2461C77.6256 80.332 82.9459 73.9922 83.9029 73.9336C84.942 73.8711 85.692 76.0352 86.2193 76.8516C86.8834 77.8789 87.6217 79.1602 88.7037 79.7656C91.7662 81.4805 95.3795 78.8438 94.5943 75.418C94.2779 74.0313 93.4771 73.4492 92.4107 72.668C91.6256 72.0938 88.735 70.6406 88.4771 70.1172C88.1021 69.3594 88.6686 68.7969 89.1334 68.2266C90.6803 66.332 92.9928 64.6367 94.61 62.7539L77.2389 45.4102L71.1725 51.3438C69.5084 52.5781 68.7311 49.6524 67.9889 48.4961C67.6373 47.9492 67.0475 47.0899 66.6139 46.6289C64.5318 44.418 60.6373 45.1563 59.817 48.168C59.0436 51.0039 61.0318 52.461 63.1529 53.793C64.2545 54.4844 66.9342 55.1445 65.692 56.8203L59.7584 62.7735C59.7232 62.961 59.8834 63.0274 59.9732 63.1406C60.6412 64.0078 63.0357 66.375 63.9107 67.0742C64.1412 67.2578 64.3561 67.4727 64.6842 67.457V67.4531Z" fill="#CEA459"/>
</svg>
