<svg width="151" height="150" viewBox="0 0 151 150" fill="none" xmlns="http://www.w3.org/2000/svg">
<path d="M75.5 140.887C111.888 140.887 141.387 111.388 141.387 75C141.387 38.6118 111.888 9.11328 75.5 9.11328C39.1118 9.11328 9.61328 38.6118 9.61328 75C9.61328 111.388 39.1118 140.887 75.5 140.887Z" fill="#F2F2F2"/>
<path d="M41.8088 90.3789C41.0822 89.625 40.3361 87.9453 39.8439 87.4883C38.9963 86.7031 36.2658 85.8984 35.1213 85.1133C33.8713 84.2578 33.0744 83.0391 32.9338 81.5117C32.5939 77.8203 32.6603 71.043 32.9338 67.3008C33.0666 65.4922 33.7658 63.9141 34.8986 62.543C37.1369 59.8398 41.8088 55.0039 45.3517 54.6953C55.383 55.2031 66.0392 54.043 75.9963 54.6953C82.4885 55.1211 86.5705 60.3594 91.7189 63.6211C99.2267 63.4609 106.742 63.7539 113.992 65.8125C116.477 66.5156 118.613 68.4101 119.317 70.9453C119.875 72.957 119.813 80.6836 119.602 83.0039C119.528 83.8008 119.449 83.9883 118.789 84.4336C117.199 85.5039 114.18 86.3164 112.801 87.4101C112.367 87.7539 112.039 88.707 111.637 89.2344C106.77 95.6719 97.2463 94.7266 93.6955 87.5625L58.7385 87.6016C55.7932 94.1562 46.801 95.5664 41.8049 90.3789H41.8088ZM68.5197 63.668H86.5432C84.9846 62.3711 83.2502 60.8867 81.5588 59.7812C80.3791 59.0078 77.9416 57.6914 76.551 57.6914H66.3713L68.5197 63.668ZM65.2502 63.668L63.0783 57.7187L52.2619 57.6836C51.9377 57.6601 51.8244 57.7539 51.6369 57.9922C50.59 59.3398 49.8596 62.1719 48.8166 63.668H65.2502ZM43.0236 58.7148C41.7971 59.6562 37.8986 63.5547 36.9533 64.7851C36.3439 65.5781 36.0119 66.4922 35.926 67.4922C35.6291 70.9336 35.6135 77.7148 35.926 81.1406C36.0861 82.8867 37.676 82.8359 38.9221 83.6523C38.7033 79.7305 40.8557 75.6875 44.3361 73.8437C52.051 69.7578 61.0353 76.0351 59.6525 84.5859H92.8947C91.9416 79.9023 95.0314 74.7695 99.5158 73.1875C106.715 70.6484 113.969 76.0976 113.625 83.6523C114.391 83.0781 116.508 82.6601 116.621 81.7031C115.942 77.2031 118.789 70.2148 112.883 68.6133C109.5 67.6953 105.61 67.2891 102.145 66.6523H46.1213C45.1955 66.5039 44.7189 65.6367 44.9338 64.7422L48.4416 57.6953C47.4182 57.7969 46.1642 57.5547 45.1721 57.6953C44.59 57.7773 43.508 58.3437 43.0197 58.7187L43.0236 58.7148ZM103.164 90.5586C107.289 90.5586 110.633 87.2148 110.633 83.0898C110.633 78.9648 107.289 75.6211 103.164 75.6211C99.0392 75.6211 95.6955 78.9648 95.6955 83.0898C95.6955 87.2148 99.0392 90.5586 103.164 90.5586ZM49.3791 90.5586C53.5041 90.5586 56.8478 87.2148 56.8478 83.0898C56.8478 78.9648 53.5041 75.6211 49.3791 75.6211C45.2541 75.6211 41.9103 78.9648 41.9103 83.0898C41.9103 87.2148 45.2541 90.5586 49.3791 90.5586Z" fill="black"/>
<path d="M103.16 78.6133C105.633 78.6133 107.637 80.6172 107.637 83.0898C107.637 85.5625 105.633 87.5664 103.16 87.5664C100.687 87.5664 98.6836 85.5625 98.6836 83.0898C98.6836 80.6172 100.687 78.6133 103.16 78.6133ZM103.164 84.6133C104.004 84.6133 104.684 83.9336 104.684 83.0938C104.684 82.2539 104.004 81.5742 103.164 81.5742C102.324 81.5742 101.645 82.2539 101.645 83.0938C101.645 83.9336 102.324 84.6133 103.164 84.6133Z" fill="black"/>
<path d="M49.375 78.6133C51.8477 78.6133 53.8516 80.6172 53.8516 83.0898C53.8516 85.5625 51.8477 87.5664 49.375 87.5664C46.9023 87.5664 44.8984 85.5625 44.8984 83.0898C44.8984 80.6172 46.9023 78.6133 49.375 78.6133ZM49.3789 84.6133C50.2187 84.6133 50.8984 83.9336 50.8984 83.0938C50.8984 82.2539 50.2187 81.5742 49.3789 81.5742C48.5391 81.5742 47.8594 82.2539 47.8594 83.0938C47.8594 83.9336 48.5391 84.6133 49.3789 84.6133Z" fill="black"/>
<path d="M43.0235 58.7148C41.7969 59.6562 37.8985 63.5547 36.9532 64.7851C36.3438 65.5781 36.0118 66.4922 35.9258 67.4922C35.6289 70.9336 35.6133 77.7148 35.9258 81.1406C36.086 82.8867 37.6758 82.8359 38.9219 83.6523C38.7032 79.7305 40.8555 75.6875 44.336 73.8437C52.0508 69.7578 61.0352 76.0351 59.6524 84.5859H92.8946C91.9414 79.9023 95.0313 74.7695 99.5157 73.1875C106.715 70.6484 113.969 76.0976 113.625 83.6523C114.391 83.0781 116.508 82.6601 116.621 81.7031C115.941 77.2031 118.789 70.2148 112.883 68.6133C109.5 67.6953 105.609 67.289 102.145 66.6523H46.1211C45.1954 66.5039 44.7188 65.6367 44.9336 64.7422L48.4414 57.6953C47.418 57.7969 46.1641 57.5547 45.1719 57.6953C44.5899 57.7773 43.5078 58.3437 43.0196 58.7187L43.0235 58.7148Z" fill="#CEA459"/>
<path d="M76.2695 69.6445H70.293V72.6328H76.2695V69.6445Z" fill="black"/>
<path d="M64.3164 69.6445H58.3398V72.6328H64.3164V69.6445Z" fill="black"/>
</svg>
