<svg width="150" height="150" viewBox="0 0 150 150" fill="none" xmlns="http://www.w3.org/2000/svg">
<path d="M75 140.887C111.388 140.887 140.887 111.388 140.887 75C140.887 38.6118 111.388 9.11328 75 9.11328C38.6118 9.11328 9.11328 38.6118 9.11328 75C9.11328 111.388 38.6118 140.887 75 140.887Z" fill="#F1F1F1"/>
<path d="M76.457 68.2266C68.3984 68.2266 61.8398 61.668 61.8398 53.6094C61.8398 45.5508 68.3984 38.9922 76.457 38.9922C84.5156 38.9922 91.0742 45.5508 91.0742 53.6094C91.0742 61.668 84.5156 68.2266 76.457 68.2266Z" fill="#D5A14A"/>
<path d="M83.8926 46.7227L83.8145 46.7422L73.9239 56.5078L73.8535 56.5195C73.5567 56.5195 72.9434 55.8867 71.8926 54.7695C70.5098 53.2969 69.3067 52.0703 68.6231 51.957C68.1113 51.875 67.584 52.125 67.2403 52.5977C66.9239 53.0273 66.8223 53.5547 66.9668 54.0117C67.166 54.6367 68.4043 55.7891 70.1309 57.3516C71.2598 58.3711 72.3223 59.3359 72.752 59.9531L72.8028 60.0078C72.8809 60.0742 73.1621 60.3008 73.4668 60.3555C73.5371 60.3672 73.6035 60.3711 73.666 60.3711C73.8379 60.3711 73.9863 60.3359 74.0801 60.3047L74.1465 60.2852L85.6817 48.875L85.7403 48.793C85.9824 48.293 85.9785 47.793 85.7285 47.3789C85.3848 46.8125 84.6387 46.543 83.8887 46.7266L83.8926 46.7227Z" fill="black"/>
<path d="M121.215 84.7617C121.121 82.4375 121.027 80.0313 121.098 77.7852V77.6914L109.07 59.5078C108.75 59.0273 107.645 58.1328 107.164 58.1328H93.0039L93.0352 58.0117C93.418 56.5742 93.6094 55.0938 93.6094 53.6094C93.6094 44.1484 85.9141 36.4531 76.4531 36.4531C67.6445 36.4531 60.3086 43.0547 59.3906 51.8086L59.3828 51.8945L36.0313 51.9141C33.5898 52.1367 31.9023 53.75 31.6211 56.1562L31.668 94.5078L31.6758 94.5781C32.4609 97.7031 34.7852 98.2734 39.0781 98.2734C39.3984 98.2734 39.7305 98.2734 40.0703 98.2656H40.1523L40.168 98.3477C40.9297 102.441 44.5039 105.41 48.668 105.41C52.832 105.41 56.4453 102.41 57.1797 98.2812L57.1953 98.1992H97.2148L97.2305 98.2812C97.9648 102.41 101.547 105.41 105.742 105.41C109.938 105.41 113.469 102.449 114.238 98.3633L114.254 98.2812H114.336C114.508 98.2891 114.68 98.293 114.848 98.293C118.859 98.293 120.938 96.8906 121.195 94C121.457 91.0859 121.328 87.8711 121.207 84.7578L121.215 84.7617ZM48.6719 102.527C45.4922 102.527 42.9062 99.9414 42.9062 96.7617C42.9062 93.582 45.4922 90.9961 48.6719 90.9961C51.8516 90.9961 54.4375 93.582 54.4375 96.7617C54.4375 99.9414 51.8516 102.527 48.6719 102.527ZM76.457 68.2266C68.3984 68.2266 61.8398 61.668 61.8398 53.6094C61.8398 45.5508 68.3984 38.9922 76.457 38.9922C84.5156 38.9922 91.0742 45.5508 91.0742 53.6094C91.0742 61.668 84.5156 68.2266 76.457 68.2266ZM87.3281 66.8672V95.2031H57.1797L57.1641 95.125C56.3828 91.0625 52.8125 88.1133 48.6719 88.1133C44.5312 88.1133 40.9688 91.0586 40.1836 95.1133L40.168 95.1914L39.3594 95.2188C38.7109 95.2422 38.0977 95.2617 37.5664 95.2617C36.3594 95.2617 35.1523 95.1875 34.793 94.2891L34.7852 94.2734L34.7227 55.9844L35.6797 55.0234L59.3477 54.8594L59.3555 54.9492C60.043 63.8164 67.5547 70.7656 76.4531 70.7656C80.3867 70.7656 84.0898 69.4609 87.1641 66.9961L87.3242 66.8672H87.3281ZM105.746 102.527C102.566 102.527 99.9805 99.9414 99.9805 96.7617C99.9805 93.582 102.566 90.9961 105.746 90.9961C108.926 90.9961 111.512 93.582 111.512 96.7617C111.512 99.9414 108.926 102.527 105.746 102.527ZM99.9805 78.0234C101.543 79.3516 103.375 80.1797 104.762 80.1797H118.184V94.0039C118.176 94.2461 117.445 95.0781 117.172 95.1602C116.766 95.2773 116.18 95.2734 114.867 95.2344L114.254 95.2148L114.238 95.1367C113.461 91.0664 109.891 88.1172 105.746 88.1172C101.602 88.1172 98.0391 91.0664 97.2539 95.1289L97.2383 95.207H90.3359V63.6797L90.3555 63.6523C90.918 62.875 91.418 62.0508 91.8359 61.2031L91.8633 61.1484H97.3438V73.5703C97.3438 74.9805 98.3047 76.6094 99.9766 78.0312L99.9805 78.0234ZM104.762 77.168C104.246 77.168 102.664 76.418 102.191 76.0508C101.602 75.5898 100.355 73.9258 100.355 73.1641V61.1445H106.418L117.066 77.168H104.762Z" fill="black"/>
</svg>
