<svg width="151" height="151" viewBox="0 0 151 151" fill="none" xmlns="http://www.w3.org/2000/svg">
<path d="M75.5156 140.974C111.904 140.974 141.402 111.475 141.402 75.087C141.402 38.6987 111.904 9.20026 75.5156 9.20026C39.1274 9.20026 9.62891 38.6987 9.62891 75.087C9.62891 111.475 39.1274 140.974 75.5156 140.974Z" fill="#F1F1F1"/>
<path d="M103.455 92.0167L111.478 106.11C111.556 107.075 110.83 107.907 109.833 107.755L98.0991 104.735L94.6889 116.806C93.8647 117.63 92.8452 117.228 92.3178 116.306L85.1499 103.876C82.0014 103.603 78.7241 100.528 75.6225 100.786C73.0093 101.005 69.8999 103.61 67.1264 103.923C64.5522 107.704 62.6538 112.306 60.103 116.048C59.1342 117.47 58.2475 117.86 57.185 116.173L54.2319 104.716L41.9897 107.755C40.9975 107.571 40.5327 106.583 40.9507 105.661L48.6616 92.2432L48.6069 92.0089C45.9858 90.6417 45.5092 88.2237 45.6342 85.4698C45.7124 83.7198 46.3257 81.6612 46.185 79.919C45.8296 75.5401 38.2592 73.2042 40.0405 67.3448C41.0717 63.9542 45.7944 61.4737 46.1577 58.4308C46.5796 54.9347 44.2553 50.5323 46.8999 47.3604C49.853 43.8175 55.8764 45.8018 58.5678 42.2081C60.9663 39.0089 61.9467 33.7081 67.185 34.2237C70.0717 34.5089 72.935 37.044 75.6108 37.2511C79.9077 37.5792 83.8686 32.2315 88.4741 34.9503C91.6264 36.8097 92.5874 42.4776 95.396 43.7745C98.5991 45.255 103.716 44.5011 105.779 48.0675C107.439 50.9308 105.923 54.6104 105.97 57.5753C106.044 62.1612 112.806 64.255 112.4 69.5557C112.064 73.9737 105.943 76.38 105.935 80.4659C105.935 81.8253 106.412 83.5518 106.486 84.9425C106.642 87.8839 106.466 90.7159 103.447 92.0128L103.455 92.0167ZM66.0053 37.1065C63.5678 37.5753 61.7475 43.7433 59.4155 45.5558C56.8257 47.5675 53.4936 47.2081 50.6655 48.2589C49.4663 48.7042 48.6342 49.4308 48.5053 50.7511C48.1811 54.1104 49.8257 57.7159 48.3139 60.9386C47.2241 63.2589 42.9233 66.544 42.6186 68.4893C42.2046 71.1456 46.146 73.9073 47.5835 76.0284C50.2671 79.9893 48.1342 83.1104 48.5053 87.2784C48.6421 88.8175 49.2553 89.2979 50.6147 89.8214C54.3452 91.2667 57.7749 90.2979 60.6538 93.9229C61.9702 95.5792 63.9233 100.685 65.9546 100.97C68.7827 101.364 72.6616 97.794 76.353 97.9112C79.5952 98.0128 83.9507 101.571 86.5014 100.919C88.2007 100.482 90.2827 95.4542 91.4975 93.9229C94.4155 90.2511 97.8139 91.3136 101.537 89.8214C102.896 89.2784 103.505 88.837 103.646 87.2784C103.99 83.38 102.037 80.0675 104.322 76.3175C105.505 74.3722 109.404 71.4308 109.552 69.3683C109.748 66.6495 105.087 63.5948 103.841 60.9386C102.318 57.6808 103.978 54.1378 103.65 50.7511C103.337 47.5128 97.5288 47.6456 95.0874 46.7862C91.2749 45.4425 90.8647 42.8839 88.9311 39.88C87.1967 37.1847 86.6382 36.5362 83.4194 37.7003C81.1225 38.5323 78.5522 40.3448 75.9897 40.3058C72.9663 40.2589 68.1499 36.6964 66.0093 37.1065H66.0053ZM58.8921 112.056L64.0717 103.372C61.2553 101.786 60.3882 98.5597 58.6772 96.0714C56.9663 93.5831 54.3022 93.6534 51.4936 93.0714L45.2905 104.001L55.3843 101.505C56.1147 101.607 56.2827 102.091 56.5132 102.712C57.56 105.544 58.0718 109.11 58.8921 112.06V112.056ZM100.755 93.0987C97.9741 93.6456 95.2397 93.5714 93.4663 96.0714C91.6928 98.5714 90.9428 101.817 88.0913 103.372L92.8999 111.876C93.3374 111.935 93.1811 111.876 93.2749 111.626C94.2983 108.849 94.6108 105.306 95.6772 102.575C96.0874 101.521 96.4858 101.403 97.5952 101.544L106.857 104.005L100.755 93.0987Z" fill="black"/>
<path d="M98.3828 69.0479C98.3828 81.3682 88.3945 91.3565 76.0742 91.3565C63.7539 91.3565 53.7656 81.3682 53.7656 69.0479C53.7656 56.7276 63.7539 46.7393 76.0742 46.7393C88.3945 46.7393 98.3828 56.7276 98.3828 69.0479Z" fill="#D5A14A"/>
<path d="M88.3777 59.8331C89.8426 59.7042 90.3738 61.6534 89.3113 62.5675L74.1082 77.7902C73.3621 78.4737 72.7098 78.3527 71.952 77.7902C68.8426 75.4816 65.8582 71.0792 62.7332 68.5714C61.8231 67.7237 62.3543 66.0519 63.6317 66.0519C64.2176 66.0519 64.9715 66.7511 65.4246 67.13C68.1199 69.3917 70.3074 72.4933 73.0926 74.6378L87.5184 60.2355C87.741 60.048 88.0887 59.8527 88.3777 59.8292V59.8331Z" fill="black"/>
</svg>
