<svg width="22" height="22" viewBox="0 0 22 22" fill="none" xmlns="http://www.w3.org/2000/svg">
<path d="M16.2373 0.0239258C19.4064 0.0239258 21.9756 2.59314 21.9756 5.76221V16.2378C21.9756 19.4069 19.4064 21.9761 16.2373 21.9761H5.76172C2.59266 21.9761 0.0234375 19.4069 0.0234375 16.2378V5.76221C0.0234375 2.59314 2.59266 0.0239258 5.76172 0.0239258H16.2373ZM5.76172 1.02393C3.14494 1.02393 1.02344 3.14543 1.02344 5.76221V16.2378C1.02344 18.8546 3.14494 20.9761 5.76172 20.9761H16.2373C18.8541 20.9761 20.9756 18.8546 20.9756 16.2378V5.76221C20.9756 3.14543 18.8541 1.02393 16.2373 1.02393H5.76172ZM8.88477 6.7915C9.76048 6.33711 10.7575 6.17023 11.7334 6.31494L11.9189 6.34619C12.8429 6.52141 13.6943 6.97114 14.3613 7.63818C15.0729 8.34977 15.537 9.27164 15.6846 10.2671L15.7246 10.6333C15.7834 11.4898 15.6056 12.3485 15.208 13.1147C14.7536 13.9904 14.0346 14.7005 13.1533 15.144C12.2721 15.5875 11.2738 15.7422 10.2998 15.5854C9.32577 15.4287 8.42613 14.9686 7.72852 14.271C7.03094 13.5734 6.5708 12.6737 6.41406 11.6997C6.25737 10.7258 6.41202 9.72735 6.85547 8.84619C7.29902 7.96495 8.00907 7.24589 8.88477 6.7915ZM11.5859 7.3042C10.8183 7.19044 10.0346 7.32183 9.3457 7.6792C8.65669 8.03671 8.09704 8.60204 7.74805 9.29541C7.39919 9.98861 7.27817 10.7743 7.40137 11.5405C7.52469 12.3069 7.8867 13.0151 8.43555 13.564C8.98443 14.1128 9.69262 14.4748 10.459 14.5981C11.2252 14.7214 12.0109 14.6003 12.7041 14.2515C13.3973 13.9026 13.9628 13.3436 14.3203 12.6548C14.6332 12.0519 14.7729 11.3756 14.7266 10.7017L14.6953 10.4136C14.5792 9.63036 14.2142 8.9051 13.6543 8.34521C13.1644 7.8553 12.5481 7.51418 11.877 7.35889L11.5859 7.3042ZM16.8721 4.74756C17.1 4.79401 17.2713 4.99622 17.2715 5.23779C17.2715 5.47949 17.1 5.68149 16.8721 5.72803L16.7715 5.73779H16.7617C16.4856 5.73779 16.2617 5.51394 16.2617 5.23779C16.2619 4.96184 16.4857 4.73779 16.7617 4.73779H16.7715L16.8721 4.74756Z" fill="white"/>
</svg>
