<svg width="150" height="150" viewBox="0 0 150 150" fill="none" xmlns="http://www.w3.org/2000/svg">
<path d="M75 140.887C111.388 140.887 140.887 111.388 140.887 75C140.887 38.6118 111.388 9.11328 75 9.11328C38.6118 9.11328 9.11328 38.6118 9.11328 75C9.11328 111.388 38.6118 140.887 75 140.887Z" fill="#F1F1F1"/>
<path d="M74.3771 114.457C63.549 110.703 53.8225 104.359 48.0959 94.207C41.2326 82.0508 41.4084 67.668 41.76 54.1016C41.799 52.543 41.4592 49.2539 42.0334 48.0078C43.0256 45.8438 46.1506 46.543 48.0451 46.4063C56.1936 45.8164 63.6896 43.4102 70.1037 38.3242C71.1271 37.5156 73.1857 35.2852 74.2521 35.0156C76.4592 34.4648 77.6154 36.4883 79.1232 37.7031C85.9631 43.2031 93.1779 45.7695 101.959 46.4063C103.85 46.543 106.975 45.8438 107.971 48.0078C108.545 49.2539 108.205 52.543 108.244 54.1016C108.596 67.668 108.772 82.0469 101.908 94.207C96.174 104.367 86.4553 110.684 75.6271 114.457H74.385H74.3771ZM105.373 49.7148C95.6232 49.2891 86.6076 46.6523 78.6232 41.0469C78.0412 40.6406 75.2482 38.2852 74.9318 38.3125C74.6936 38.3359 71.9904 40.6055 71.4592 40.9766C63.4436 46.6211 54.4084 49.293 44.6076 49.7148C43.9631 69.2773 43.2912 90.8164 60.1584 104.062C64.5451 107.508 69.7678 110.184 75.049 111.969C88.0373 107.523 98.4553 98.6875 102.69 85.3477C105.76 75.6758 106.08 62.1563 105.553 52.0078C105.514 51.2656 105.244 50.5039 105.373 49.7109V49.7148Z" fill="black"/>
<path d="M98.7503 55.2695C98.6488 55.8867 98.8597 56.4844 98.891 57.0625C99.305 64.9922 99.0511 75.5625 96.6527 83.1211C93.3441 93.5469 85.2035 100.449 75.0511 103.926C70.9222 102.531 66.8402 100.438 63.4105 97.7461C50.2269 87.3906 50.7542 70.5586 51.2581 55.2695C58.9183 54.9375 65.9808 52.8516 72.2464 48.4414C72.6605 48.1484 74.7738 46.375 74.9613 46.3594C75.2113 46.3359 77.391 48.1758 77.848 48.4961C84.0902 52.8789 91.1371 54.9375 98.7542 55.2734L98.7503 55.2695Z" fill="#D5A14A"/>
<path d="M89.9076 64.1328C91.4545 64 92.0131 66.0547 90.892 67.0195L74.8568 83.0742C74.0678 83.7969 73.3842 83.668 72.5834 83.0742C69.306 80.6367 66.1576 75.9961 62.8607 73.3516C61.8998 72.457 62.4584 70.6953 63.8099 70.6953C64.4271 70.6953 65.224 71.4297 65.7006 71.832C68.5404 74.2187 70.8529 77.4883 73.7865 79.75L89.0014 64.5625C89.2396 64.3672 89.6029 64.1601 89.9076 64.1328Z" fill="black"/>
</svg>
