<svg width="150" height="150" viewBox="0 0 150 150" fill="none" xmlns="http://www.w3.org/2000/svg">
<path d="M75 140.887C111.388 140.887 140.887 111.388 140.887 75C140.887 38.6118 111.388 9.11328 75 9.11328C38.6118 9.11328 9.11328 38.6118 9.11328 75C9.11328 111.388 38.6118 140.887 75 140.887Z" fill="#F1F1F1"/>
<path fill-rule="evenodd" clip-rule="evenodd" d="M110.305 65.7148H90.0625V59.418H61.2188V65.7148H39.5586L31.2578 82H61.2188V88.2969H90.0625V82H111.781L120.082 65.7148H110.309H110.305ZM105.711 78.3594H86.4102V84.6484H64.8672V78.3594H41.0313L45.6172 69.3555H64.8711V63.0664H86.4141V69.3555H110.309L105.715 78.3594H105.711Z" fill="black"/>
</svg>
