<svg width="150" height="150" viewBox="0 0 150 150" fill="none" xmlns="http://www.w3.org/2000/svg">
<path d="M75 140.887C111.388 140.887 140.887 111.388 140.887 75C140.887 38.6118 111.388 9.11328 75 9.11328C38.6118 9.11328 9.11328 38.6118 9.11328 75C9.11328 111.388 38.6118 140.887 75 140.887Z" fill="#F1F1F1"/>
<path d="M98.3008 57.6797C97.8125 56.2813 98.5547 54.6992 99.9375 54.1719C100.957 53.7852 107.352 52.4531 108.352 52.4531C109.418 52.4531 110.574 53.2617 110.965 54.25C112.621 62.6875 114.496 71.0977 116.062 79.5508C116.297 80.8086 117.043 83.6367 116.918 84.7149C116.824 85.5195 116.043 86.5391 115.297 86.8555C114.34 87.2617 107.965 88.5391 106.871 88.5742C105.922 88.6055 104.777 88.0586 104.312 87.2149C104.07 86.7774 104.09 86.3125 103.773 85.957L100.668 89.0625C100.613 90.043 100.84 90.8164 100.676 91.8438C100.223 94.6758 97.5156 96.6445 94.6992 96.4102C95.0234 100.492 91.1914 103.465 87.3008 102.094C86.5273 101.82 85.9648 101.258 85.2227 100.984C84.6133 104.012 81.4531 105.695 78.5117 104.996C76.3438 104.48 75.082 102.477 73.4531 101.148C72.6133 105.258 67.4414 106.734 64.375 103.93L46.7266 86.2774C46.375 86.2188 46.5391 86.3477 46.4687 86.5039C45.9141 87.7734 45.168 88.6211 43.6328 88.5703C42.4453 88.5313 36.4648 87.3125 35.332 86.8906C34.5156 86.5859 33.6875 85.5859 33.5859 84.7109L39.4023 54.7617C39.6328 53.4219 40.9531 52.4102 42.293 52.457C43.6328 52.5039 49.1523 53.6797 50.4453 54.125C50.8945 54.2773 51.2305 54.4609 51.5586 54.8086C52.0273 55.3008 52.1562 56.2813 52.6133 56.3711L68.8086 56.2188C70.8555 54.6875 72.6406 52.457 75.3516 52.1367C80.1445 51.5703 81.9141 54.7734 85.6016 56.7227C89.6445 58.8594 93.9766 59.2109 98.2969 57.6719L98.3008 57.6797ZM98.7891 60.2969C94.1289 61.7969 89.4648 61.5352 85.0547 59.4063C81.4063 57.6445 78.2695 53.0859 74 55.3633C70.832 58.207 67.0664 60.7539 63.9766 63.6445C62.9336 64.6211 62.0078 65.4297 62.3867 67.0391L65.0391 79.0977C65.1719 79.3399 65.875 78.9297 66.0859 78.8281C68.8359 77.5195 69.8828 75.457 70.4414 72.5586C71.1094 69.082 70.0039 64.0352 75.4258 65.4414C80.1758 66.6758 89.2734 77.2891 93.0703 81.1406C95.0039 83.1055 96.9648 85.1211 99.0195 86.9258L103.055 82.9414L103.219 82.4531L98.7969 60.2969H98.7891ZM42.0039 55.0664L36.1367 84.4727L43.9492 86.0313L49.8164 56.625L42.0039 55.0664ZM108.512 55.0664L100.699 56.625L106.566 86.0313L114.379 84.4727L108.512 55.0664ZM65.4531 58.9922H51.8867L47.2383 83.0274C47.668 83.3711 47.9336 83.8438 48.2891 84.25C49.5078 85.6406 51.0117 86.7774 52.3008 88.082C56.4766 92.3047 60.7148 97.1602 65.125 101.082C66.5273 102.328 67.6719 103.5 69.6562 102.34C71.1094 101.488 71.4766 99.5 70.5234 98.1367C69.2969 96.3867 66.2578 94.4805 65.1562 92.7188C64.1836 91.1641 65.6211 89.9063 67.0078 90.8672C70.707 94.0234 74.0703 98.6563 77.7891 101.656C81.0273 104.27 84.3203 100.539 82.1211 97.6524L71.6875 87.168C70.9609 85.4531 72.9414 84.6367 74.1172 85.8789L87.6953 99.4336C90.5156 100.934 93.3047 97.9063 91.6055 95.1953L78.6211 82.1914C77.5117 80.8906 79.207 79.1328 80.4922 80.3203L93.6133 93.3516C95.9492 95.0703 99.3477 91.9961 97.8164 89.6406C97.4141 89.0195 95.6172 87.3164 94.957 86.6172C89.2969 80.6211 83.3047 74.7383 77.207 69.2266C76.1094 68.5781 74.957 67.8047 73.6289 67.8281C73.1641 73.6055 72.6875 78.9336 66.707 81.418C65.168 82.0586 63.4062 83 62.75 80.9024C61.6953 77.5274 60.7539 72.3984 60.1055 68.8359C59.8984 67.6992 59.5977 66.6367 59.7266 65.4531C60.0391 62.6445 63.6836 60.8555 65.4492 58.9961L65.4531 58.9922Z" fill="black"/>
<path d="M41.9986 55.0623L36.1328 84.4713L43.9438 86.0293L49.8096 56.6203L41.9986 55.0623Z" fill="#D5A14A"/>
<path d="M108.506 55.078L100.695 56.6359L106.561 86.0449L114.372 84.487L108.506 55.078Z" fill="#D5A14A"/>
</svg>
