<svg width="151" height="150" viewBox="0 0 151 150" fill="none" xmlns="http://www.w3.org/2000/svg">
<path d="M75.6562 140.887C112.044 140.887 141.543 111.388 141.543 75C141.543 38.6118 112.044 9.11328 75.6562 9.11328C39.268 9.11328 9.76953 38.6118 9.76953 75C9.76953 111.388 39.268 140.887 75.6562 140.887Z" fill="#F1F1F1"/>
<path d="M62.2836 103.844H62.2289C58.6625 103.594 55.975 101.039 55.5414 97.4805L55.5297 97.3789V97.2773C55.5727 92.2227 55.5493 87.0703 55.5297 82.0859C55.4946 73.8281 55.4555 65.2891 55.7055 56.9062V56.75L55.7446 56.5977C56.0571 55.2656 56.6977 54.2734 57.3422 53.4023C59.1586 50.9375 61.3266 48.5508 63.4204 46.2461C65.0571 44.4453 66.7524 42.582 68.2172 40.7383L68.3071 40.625L68.4164 40.5313C69.2055 39.8477 71.4243 38.5078 72.9829 38.5078H75.1704V30.8672H79.893L80.479 32.0703V32.4375V38.5156H82.6664C84.6235 38.5156 87.0727 40.1836 88.0922 41.3867L88.1547 41.4648C89.6079 43.4219 91.3657 45.3516 93.0649 47.2227C94.8735 49.2109 96.7446 51.2695 98.3188 53.418C99.3071 54.7695 99.9946 56.0977 100.123 58.1875V58.2852V97.1445C99.8735 100.711 97.3149 103.398 93.7641 103.828L93.5766 103.84L62.2797 103.848L62.2836 103.844ZM58.6586 97.1992C58.9399 99.1875 60.393 100.562 62.393 100.719L93.475 100.711C95.4633 100.434 96.8383 98.9766 97.0024 96.9727V58.332C96.9204 57.1602 96.6118 56.375 95.7954 55.2578C94.3227 53.2422 92.5102 51.25 90.7563 49.3203C89.018 47.4102 87.2211 45.4336 85.6821 43.3711C84.9829 42.5703 83.3735 41.6406 82.6743 41.6406L72.9868 41.6328C72.5805 41.6484 71.2446 42.2734 70.5649 42.8086C69.0571 44.6914 67.3696 46.5469 65.7368 48.3477C63.6938 50.5938 61.5844 52.9219 59.8579 55.2578C59.3618 55.9297 59.0102 56.4961 58.8266 57.1719C58.5805 65.4492 58.6196 73.8984 58.6547 82.0742C58.6782 87.0312 58.6977 92.1563 58.6586 97.1953V97.1992ZM77.8344 57.8047C75.1664 57.8047 72.9985 55.6367 72.9985 52.9688C72.9985 50.3008 75.1664 48.1328 77.8344 48.1328C80.5024 48.1328 82.6704 50.3008 82.6704 52.9688C82.6704 55.6367 80.5024 57.8047 77.8344 57.8047ZM77.8344 51.2578C76.8891 51.2578 76.1235 52.0234 76.1235 52.9688C76.1235 53.9141 76.8891 54.6797 77.8344 54.6797C78.7797 54.6797 79.5454 53.9141 79.5454 52.9688C79.5454 52.0234 78.7797 51.2578 77.8344 51.2578Z" fill="black"/>
<path d="M78.6758 94.1055C87.1132 94.1055 93.9531 87.2656 93.9531 78.8281C93.9531 70.3907 87.1132 63.5508 78.6758 63.5508C70.2383 63.5508 63.3984 70.3907 63.3984 78.8281C63.3984 87.2656 70.2383 94.1055 78.6758 94.1055Z" fill="#D5A14A"/>
<path d="M79.5317 69.1914V71.7852H82.9927V73.5156H76.9926C76.7661 73.5156 76.102 73.8867 75.9106 74.0586C74.6059 75.2188 75.2036 77.4883 76.9302 77.793C78.1294 78.0039 79.1802 77.6445 80.4262 78.082C84.2934 79.4375 83.7895 86.0977 79.5317 86.4922V89.0859H77.8012V86.4922H73.477V84.7617H79.477C79.7036 84.7617 80.3677 84.3906 80.5591 84.2188C81.6645 83.2344 81.5669 80.5781 80.1762 79.8438C78.7505 79.0938 76.9223 80.0938 75.1723 78.9023C71.8169 76.6172 73.8325 71.4102 77.8052 71.7812V69.1875H79.5356H79.5317V69.1914Z" fill="black"/>
</svg>
