<svg width="151" height="150" viewBox="0 0 151 150" fill="none" xmlns="http://www.w3.org/2000/svg">
<path d="M75.3438 140.887C111.732 140.887 141.23 111.388 141.23 75C141.23 38.6118 111.732 9.11328 75.3438 9.11328C38.9555 9.11328 9.45703 38.6118 9.45703 75C9.45703 111.388 38.9555 140.887 75.3438 140.887Z" fill="#F1F1F1"/>
<path d="M23.7461 61.2695C24.4336 59.3281 25.6328 58.1133 27.7656 57.9219C30.8281 57.6445 33.7031 57.9766 36.0391 60.082C36.2891 60.3086 36.7969 61.3008 37.1094 61.0742L44.3008 46.3516C45.6875 44.668 47.7773 43.5391 49.9727 43.3789L89.1992 43.4766C93.7188 44.3086 95.2109 48.3047 96.8828 52.0039C98.6562 51.9219 100.473 51.6992 102.254 51.8437C106.395 52.1758 116.695 56.9492 120.438 59.207C122.703 60.5703 124.082 62.625 124.371 65.2969C124.07 71.7578 124.746 78.5391 124.371 84.9648C123.688 96.6719 115.371 105.77 105.5 111.098C104.551 111.609 101.535 113.246 100.664 113.348C99.2578 113.516 94.5195 110.762 93.1328 109.895C88.8828 107.246 84.9219 103.836 81.9727 99.7891H50.4727V103.426C50.4727 104.883 48.6953 107.008 47.4023 107.629C45.6992 108.445 39.4336 108.512 37.5703 108.074C31.2148 106.586 34.3164 99.4805 33.3281 95.6133C33.1797 95.0312 31.2734 92.6328 30.7852 91.4727C29.2539 87.8164 29.2383 78.0625 29.6641 73.9727C29.875 71.9531 30.9531 69.8516 32 68.1523H27.1836C27.1172 68.1523 26.0937 67.7305 25.9258 67.6406C24.6914 67 24.2695 66.0156 23.7461 64.8086V61.2695ZM38.0938 65.5937H76.6133C76.5156 64.1562 77.1289 62.5039 77.9883 61.3672C79.8867 58.8672 87.3437 55.9062 90.4961 54.418C91.5742 53.9102 92.7852 53.3203 93.9062 53.0117C92.9414 50.2422 91.7266 46.8672 88.3125 46.5195H50.3672C49.293 46.5312 47.9219 47.1016 47.1523 47.8242C45.7188 49.168 43.4219 55.0938 42.3906 57.2109C41.0195 60.0312 39.6094 62.8477 38.0938 65.5898V65.5937ZM100.156 54.8398C95.9922 54.957 85.8789 59.6914 82.1133 61.9531C80.5938 62.8633 79.9102 63.625 79.75 65.4883C80.3906 74.6445 78.0898 84.8477 81.8828 93.4375C84.8711 100.199 92.3867 107.012 99.2734 109.652C100.816 110.242 101.195 109.852 102.621 109.195C108.977 106.277 116.129 99.9922 119.031 93.5703C120.551 90.2109 121.125 86.375 121.625 82.8008C122.125 79.1992 121.871 70.332 121.625 66.4687C121.488 64.3125 120.918 62.9219 119.004 61.8203C115.684 59.9102 106.547 55.5937 102.992 55.0352C102.125 54.8984 101.039 54.8164 100.156 54.8398ZM27.6211 61.1172C26.5469 61.4258 26.4297 64.6797 27.8633 65.1133C28.4687 65.2969 33.5547 65.3281 34.2578 65.1953C36.4844 64.7734 33.6797 62.0117 32.6367 61.5195C31.6484 61.0547 28.6211 60.8281 27.6211 61.1133V61.1172ZM76.6094 82.4961V68.8359L76.3164 68.543H35.4414C34.2109 69.9453 33.1211 71.6172 32.6836 73.4492C32.0703 76.0234 32.1367 85.168 32.6836 87.8086C33.457 91.5547 37.3828 96.6445 41.5352 96.6445H79.957L77.6719 91.7578L59.0391 91.7187C56.9141 91.3828 57.8125 88.5859 58.832 88.5859H77.207L76.8164 85.6367L58.7656 85.5078C57.0039 84.9609 57.8828 82.4922 58.832 82.4922H76.6172L76.6094 82.4961ZM47.3281 99.5937H41.1367C40.7188 99.5937 38.9141 98.9961 38.3828 98.8125C37.6641 98.5625 36.9414 98.2773 36.3242 97.8281V103.035C36.3242 103.605 37.3125 104.648 37.8906 104.812C38.7109 105.047 44.4531 105.031 45.418 104.855C46.0938 104.734 47.332 103.645 47.332 103.035V99.5977L47.3281 99.5937Z" fill="black"/>
<path d="M51.5839 77.2578C53.1425 78.7382 54.455 83.1132 51.8143 83.9335C49.9003 84.5273 41.2636 84.4804 39.1932 84.0468C38.037 83.8046 36.9745 83.3007 36.6542 82.0663C36.412 81.1249 36.3807 77.5429 36.6034 76.5859C36.9979 74.8828 38.8807 73.9413 40.5214 74.0663C42.162 74.1913 49.2831 75.8007 50.6073 76.5624C50.8807 76.7187 51.3612 77.0507 51.58 77.2578H51.5839ZM39.4706 77.289V80.9257L49.7948 81.1249C50.0878 81.082 50.1073 81.2421 50.0878 80.8281C50.0487 79.9023 48.9276 78.9531 48.1151 78.6718C46.7831 78.207 41.6932 77.0976 40.3261 77.0117C40.1503 76.9999 39.9745 76.9609 39.7987 77.0195L39.4706 77.2929V77.289Z" fill="black"/>
<path d="M98.5784 59.5586C104.86 58.8047 110.067 63.2305 115.66 65.3594C116.227 65.668 116.692 66.1953 116.707 66.8672C116.34 80.0976 119.379 90.5781 108.356 100.187C107.082 101.297 101.93 105.02 100.473 105.086C99.0159 105.152 93.6174 101.215 92.3323 100.09C81.4924 90.5976 84.4182 80.3125 84.0705 67.2578C84.1018 65.5469 86.2268 64.914 87.5471 64.25C90.1291 62.9531 95.9807 59.8711 98.5784 59.5625V59.5586Z" fill="#D5A14A"/>
<path d="M106.946 76.2774C108.466 74.9922 110.262 76.1914 109.477 78.1211L100.18 90.043C99.3523 90.4453 99.0867 90.2969 98.3679 89.9219C97.6492 89.5469 92.5476 85.6563 92.1687 85.1172C91.7898 84.5781 91.5828 84 91.9656 83.3985C93.6609 80.7422 97.407 86.1133 99.2156 86.3399L106.946 76.2735V76.2774Z" fill="black"/>
</svg>
