<svg width="22" height="22" viewBox="0 0 22 22" fill="none" xmlns="http://www.w3.org/2000/svg">
<path fill-rule="evenodd" clip-rule="evenodd" d="M16.2634 13.1518C15.9928 13.0046 14.6626 12.2927 14.4136 12.1919C14.1647 12.091 13.9821 12.0389 13.7873 12.3061C13.5939 12.5723 13.0415 13.1689 12.8748 13.3454C12.7068 13.5225 12.5452 13.539 12.2739 13.3914C12.0043 13.2442 11.1263 12.9222 10.1088 11.9512C9.31655 11.196 8.79729 10.2797 8.6469 10.0001C8.49549 9.72008 8.64588 9.57756 8.78882 9.44648C8.91754 9.32783 9.07674 9.13658 9.22103 8.98231C9.36397 8.82837 9.41444 8.71543 9.51335 8.53662C9.61226 8.35781 9.57229 8.19647 9.50827 8.05665C9.44459 7.9175 8.9443 6.55086 8.73564 5.99459C8.52631 5.43866 8.29361 5.52134 8.13272 5.51496C7.97182 5.50958 7.78891 5.47966 7.60533 5.47261C7.42072 5.46588 7.1196 5.52336 6.85743 5.78755C6.59424 6.05173 5.85651 6.68699 5.80604 8.03346C5.75489 9.37926 6.69383 10.7167 6.82491 10.9035C6.95566 11.0918 8.61675 14.0092 11.3773 15.2088C14.1393 16.4087 14.1538 16.0431 14.6602 16.0162C15.1676 15.9896 16.3162 15.4142 16.5706 14.7846C16.8243 14.1544 16.845 13.6069 16.7803 13.4906C16.7156 13.374 16.5334 13.299 16.2634 13.1518ZM11.1992 19.6385C9.37413 19.6385 7.67307 19.095 6.25349 18.1629L2.79818 19.2607L3.92105 15.9476C2.84493 14.4771 2.20948 12.6698 2.20948 10.717C2.20948 5.79696 6.24265 1.79518 11.1992 1.79518C16.1557 1.79518 20.1902 5.79696 20.1902 10.717C20.1902 15.637 16.1574 19.6385 11.1992 19.6385ZM11.1992 0C5.23529 0 0.399692 4.79802 0.399692 10.717C0.399692 12.7421 0.966374 14.6351 1.94968 16.2508L0 22L5.97912 20.101C7.52674 20.9496 9.30605 21.434 11.1988 21.434C17.1647 21.434 22 16.6356 22 10.717C22 4.79836 17.1651 0 11.1992 0Z" fill="white"/>
</svg>
